<?xml version="1.0" encoding="UTF-8"?>
<svg viewBox="0 0 744.09448819 1052.3622047" xmlns="http://www.w3.org/2000/svg">
 <g transform="matrix(4.3384 0 0 4.3384 -1871.2 -147.91)">
  <path d="m551.58 114.17s5.1942 1.8187 6.1696 7.2754-12.829 18.56-17.375 26.199-6.3329 12.359-6.0064 13.814c0.32215 1.4554 6.4962 11.641 3.8969 11.641s-24.683 1.8192-27.927 1.092c-3.2481-0.72775-3.2481-31.648-2.5994-38.196s10.362-24.937 21.523-28.062c2.9038-0.81321 21.669 2.9617 22.318 6.2358z" fill="#252413"/>
  <path d="m529.49 109.75s2.3257 1.0416 3.0231 3.9054 2.4272 4.5471 4.1837 4.947c1.752 0.39895 13.712 1.5621 13.712 1.5621s-5.3444 8.592-9.2986 14.06-9.2943 23.953-8.8308 25.256 1.4166 8.7704 1.4166 8.7704l-23.266 3.2054s-3.2525-15.362-2.7891-18.746c0.4678-3.3843 1.8624-16.402 3.2569-18.746s5.3444-11.716 7.6702-15.361c2.3257-3.6454 10.693-10.415 10.923-8.8524z" fill="#bd0179"/>
  <path d="m535.04 121.75c0.74144 0.51859 5.5165 3.1233 3.8792 3.5317s-5.031-0.0682-4.6074 1.5622 3.2129 3.3274 0.78564 3.7354c-2.4229 0.40778-5.2738 1.4263-5.4548 2.6488s-0.84733 4.8224-1.1518 4.8902-13.584-5.7726-13.584-5.7726c-2.8465-0.27197 5.2164-3.8718 5.6401-4.9584s0.42367-5.9768 0.42367-5.9768 3.0937-1.97 3.6409-2.5133c0.5429-0.5433 8.4866 1.4944 10.428 2.8529z" fill="#de6ea6"/>
  <path d="m541.94 125.79s-1.9197 7.6324-7.0301 14.312-5.9579 15.504-5.1106 16.936 1.4916 8.8253 0.85182 8.8253-18.522 3.1001-20.442 2.3846c-1.9153-0.71474 1.9197-2.3852 1.9197-2.3852s9.3692-1.4306 11.713-2.623-3.4114-4.0547-2.1316-6.2017 4.0469-4.5322 4.4705-5.9634c0.42804-1.4312-9.3692-5.963-8.3012-5.4859 1.0636 0.47661 7.8776-0.9546 11.496-4.294s12.348-16.458 12.348-16.458c0.21615 3.3394 0.21615 0.9541 0.21615 0.9541z" fill="#930c7a"/>
  <path d="m530.21 77.402s-2.4758-6.4338-5.7019-3.4855c0 0-5.4591 6.0761-0.84733 10.344 0.11915 0.11153 0.60902-0.9081 0.60902-0.9081s4.0425-4.8591 5.9402-5.9502z" fill="#26231f"/>
  <path d="m528.95 78.227s-1.7962-5.6513-4.2543-3.2099c0 0-3.2746 2.5142 0.11033 7.4018 0.0971 0.13808 0 0 0 0s1.7697-3.3987 4.144-4.1919z" fill="#f09b75"/>
  <path d="m570.83 98.016s6.3727-2.6394 6.4962 2.0224c0 0-0.9356 9.1213-6.8316 8.0145-0.15446-0.0287 0.21184-1.1108 0.21184-1.1108s0.63108-6.6031 0.12357-8.9261z" fill="#26231f"/>
  <path d="m571.1 99.623s4.9869-2.1826 4.9516 1.4984c0 0 0.44574 4.417-5.0664 4.7527-0.15446 0.01 0 0 0 0s1.1342-3.7225 0.11475-6.2511z" fill="#f09b75"/>
  <path d="m523.57 84.76c-3.8218 9.3747 1.015 21.295 10.945 28.518 1.3901 1.01 2.1051 3.3404 3.685 4.1462 1.7962 0.91995 4.3911 0.23675 6.205 0.77563 11.139 3.3127 21.986-0.43656 25.729-9.6236 4.3559-10.684-2.5376-24.676-15.398-31.253s-26.81-3.2476-31.166 7.437z" fill="#26231f"/>
  <path d="m525.42 85.325c-3.5924 8.8188 0.84733 19.977 10.044 26.697 1.2842 0.93837 2.1492 2.6508 3.61 3.3988 1.6682 0.85274 3.8704 0.66582 5.5562 1.1616 10.336 3.0438 20.433-0.53634 23.955-9.1796 4.0956-10.051-2.2463-23.139-14.162-29.236s-24.908-2.8918-29.004 7.1586z" fill="#f4b891"/>
  <path d="m538.93 84.33c0.29568 1.2885 1.6152 3.1129 2.745 3.3943l-2.745-3.3943z" fill="#26231f"/>
  <path d="m541.67 87.725c-0.0132 0.34852-1.271 0.1617-2.0874-0.98006-0.85175-1.0833-0.94443-2.3738-0.65757-2.4153 0.27803-0.05408 0.71052 0.76808 1.421 1.6771 0.69287 0.94091 1.346 1.4049 1.324 1.7182z" fill="#26231f"/>
  <path d="m540.91 83.892c-0.11916 1.3411 0.63991 3.0429 1.5667 3.8742l-1.5667-3.8742z" fill="#26231f"/>
  <path d="m542.47576,87.76732c-.12798.2496-1.08565-.27709-1.62847-1.50284-.50752-1.2605-.18536-2.45635.0618-2.37236 .30893.07099.45898.90378.85176,1.89249 .43249.97181.88705,1.69835.71493,1.98271z" fill="#26231f"/>
  <path d="m542.11 84.027c-0.48104 1.1012-0.11033 2.7117 0.68846 3.5102l-0.68846-3.5102z" fill="#26231f"/>
  <path d="m542.79365,87.5376c-.12798.2486-1.02386-.28579-1.31513-1.51253-.22949-1.2605.43249-2.18356.62667-1.99768 .26921.19309.20301.88781.35747,1.74279 .20301.84679.51634,1.48401.33099,1.76742z" fill="#26231f"/>
  <path d="m540.61 87.469c-0.18094 0.96211 0.43249 1.9256 1.3769 2.151 0.94884 0.22741 1.8624-0.36879 2.0477-1.3299 0.18094-0.96216-0.4369-1.9224-1.3813-2.1488s-1.858 0.3674-2.0433 1.3276z" fill="#26231f"/>
  <path d="m558.83 93.136c-1.0636 0.59273-3.1598 0.67034-4.091-0.09986l4.091 0.09986z" fill="#26231f"/>
  <path d="m554.74 93.037c0.22508-0.25261 0.95767-0.01681 2.0301-0.0074 1.0724-0.02323 1.8977-0.18489 2.061 0.10728 0.15445 0.23877-0.77232 1.0016-2.061 1.0218-1.3107 0.01385-2.2419-0.92197-2.0301-1.1217z" fill="#26231f"/>
  <path d="m557.83 91.172c-0.82526 0.9808-2.4714 1.45-3.6409 1.2102l3.6409-1.2102z" fill="#26231f"/>
  <path d="m554.18458,92.38125c.0794-.33172.8694-.4207 1.80941-.68864 .92236-.3154 1.58434-.73362 1.83148-.52056 .22066.15523-.37513,1.21216-1.55787,1.60715-1.18273.34308-2.16246-.12408-2.08302-.39795z" fill="#26231f"/>
  <path d="m556.95 90.248c-0.42809 1.1291-1.7565 1.8682-2.8156 1.7174l2.8156-1.7174z" fill="#26231f"/>
  <path d="m554.13605,91.96449c.0706-.3421.7017-.49683 1.40782-.87699 .67521-.43256 1.09888-.94224 1.40781-.8404 .25595.04449.0662,1.20869-.9356,1.83851-1.01945.55665-1.96388.14978-1.88003-.12112z" fill="#26231f"/>
  <path d="m555.60978,93.76707c-.52959.78602-1.58434.89429-2.35224.24322s-.9709-1.81477-.44132-2.6008 1.57993-.89132 2.35224-.24124 .97091,1.81527.44132,2.59883z" fill="#26231f"/>
  <path d="m528.38 82.738c-2.1051 2.1039-1.1165 7.1897 2.2022 11.356s7.7187 5.8422 9.8238 3.7383 0.61345-7.1825-2.7097-11.351-7.2112-5.8478-9.3163-3.7429z" fill="#f4b891"/>
  <path d="m528.43 82.777c-2.0918 2.0884-1.1121 7.1337 2.1801 11.267 3.2967 4.1333 7.6569 5.7938 9.7443 3.7051s0.61345-7.1276-2.6788-11.263c-3.2922-4.1335-7.1582-5.799-9.2457-3.7091z" fill="#f4b791"/>
  <path d="m528.48 82.815c-2.0742 2.0735-1.1077 7.0783 2.158 11.177s7.5951 5.745 9.6694 3.6721 0.60897-7.0722-2.6568-11.173-7.1008-5.7498-9.1706-3.6758z" fill="#f4b791"/>
  <path d="m528.53 82.853c-2.0566 2.0576-1.0989 7.0224 2.1404 11.087s7.5333 5.6961 9.5899 3.6385 0.61334-7.0164-2.6259-11.083-7.0435-5.701-9.1044-3.6425z" fill="#f4b690"/>
  <path d="m528.58 82.891c-2.0433 2.0421-1.0945 6.967 2.1183 10.998s7.4716 5.647 9.5149 3.6049 0.60896-6.961-2.6038-10.994-6.9861-5.6522-9.0294-3.6087z" fill="#f4b590"/>
  <path d="m528.64 82.93c-2.0301 2.0267-1.0901 6.9115 2.0963 10.909s7.4098 5.5981 9.4354 3.5713 0.60908-6.9057-2.5729-10.905c-3.1863-3.9978-6.9331-5.603-8.9588-3.5754z" fill="#f4b490"/>
  <path d="m528.69 82.969c-2.0124 2.0107-1.0857 6.856 2.0742 10.819s7.3436 5.5491 9.3604 3.5386c2.0124-2.0111 0.60908-6.8503-2.5508-10.816-3.1554-3.964-6.8758-5.5543-8.8838-3.5416z" fill="#f3b490"/>
  <path d="m528.74 83.007c-1.9948 1.9958-1.0768 6.8006 2.0566 10.73s7.2862 5.5006 9.281 3.5049c1.9992-1.9956 0.60908-6.7949-2.5199-10.726s-6.8184-5.5055-8.8176-3.5088z" fill="#f3b38f"/>
  <path d="m528.79 83.045c-1.9815 1.9798-1.0724 6.7447 2.0345 10.64 3.1025 3.8964 7.22 5.4517 9.2015 3.4713 1.986-1.9803 0.60908-6.7395-2.4934-10.637s-6.761-5.4567-8.7426-3.475z" fill="#f3b28e"/>
  <path d="m528.84 83.083c-1.9683 1.9649-1.068 6.6893 2.0124 10.551s7.1582 5.4022 9.1266 3.4377 0.60459-6.6836-2.467-10.547c-3.076-3.8621-6.7081-5.4075-8.6719-3.4416z" fill="#f2b18f"/>
  <path d="m528.89 83.122c-1.9506 1.9494-1.0592 6.6338 1.9904 10.462s7.1008 5.3534 9.0515 3.4042c1.955-1.9488 0.60896-6.6283-2.4406-10.458s-6.6507-5.3583-8.6013-3.4079z" fill="#f2b18d"/>
  <path d="m528.95 83.16c-1.933 1.934-1.0548 6.5784 1.9683 10.372s7.0391 5.305 8.9765 3.3715 0.60459-6.5734-2.414-10.369c-3.0231-3.7941-6.5978-5.3095-8.5307-3.3746z" fill="#f3b08e"/>
  <path d="m529 83.199c-1.9197 1.9185-1.0503 6.523 1.9462 10.283s6.9773 5.2559 8.897 3.3379 0.60897-6.5176-2.3876-10.279c-2.9922-3.7603-6.536-5.2607-8.4557-3.3413z" fill="#f3af8e"/>
  <path d="m529.05 83.237c-1.9065 1.9031-1.0459 6.4675 1.9242 10.193s6.9155 5.2071 8.822 3.3044 0.6046-6.4623-2.361-10.19-6.483-5.2115-8.3851-3.3079z" fill="#f3ae8e"/>
  <path d="m529.1 83.275c-1.8888 1.8876-1.0371 6.4116 1.9065 10.104s6.8537 5.1581 8.7425 3.2707 0.6046-6.4063-2.3346-10.1-6.4256-5.1627-8.3145-3.2741z" fill="#f3ae8d"/>
  <path d="m529.15 83.313c-1.8756 1.8722-1.0327 6.3566 1.8844 10.014 2.9127 3.6592 6.7919 5.1096 8.6676 3.2376s0.60459-6.351-2.3126-10.011c-2.9127-3.6584-6.3683-5.1135-8.2394-3.2408z" fill="#f2ac8d"/>
  <path d="m529.21 83.352c-1.858 1.8567-1.0283 6.3007 1.8624 9.9248 2.8862 3.6256 6.7301 5.0603 8.588 3.2045s0.6046-6.2956-2.2816-9.9222c-2.8862-3.6247-6.3109-5.0648-8.1688-3.207z" fill="#f2ac8c"/>
  <path d="m529.25 83.391c-1.8403 1.8408-1.0194 6.2448 1.8447 9.8353s6.6684 5.0112 8.5131 3.1708 0.60022-6.2402-2.2596-9.8323-6.2535-5.016-8.0982-3.1737z" fill="#f1ab8c"/>
  <path d="m529.31 83.429c-1.8271 1.8258-1.015 6.1899 1.8226 9.7462 2.8289 3.5574 6.6066 4.9628 8.4336 3.1372s0.6046-6.1848-2.2287-9.743-6.2006-4.9672-8.0276-3.1404z" fill="#f1ab8c"/>
  <path d="m529.36 83.467c-1.8138 1.8104-1.0062 6.1339 1.7962 9.6567 2.8068 3.5233 6.5492 4.9134 8.363 3.1036s0.60023-6.1295-2.2066-9.6537c-2.8024-3.5227-6.1432-4.9179-7.9526-3.1066z" fill="#f2a98a"/>
  <path d="m529.41 83.505c-1.7962 1.7949-0.99738 6.079 1.7785 9.5671s6.4874 4.8649 8.2836 3.0705 0.60022-6.0737-2.1757-9.5643-6.0858-4.8687-7.8864-3.0733z" fill="#f2a88b"/>
  <path d="m529.46 83.544c-1.7829 1.779-0.99298 6.0231 1.7564 9.4776 2.7538 3.4561 6.4256 4.816 8.2086 3.0374s0.60011-6.0188-2.1537-9.475-6.0284-4.8204-7.8114-3.04z" fill="#f2a88a"/>
  <path d="m529.51 83.583c-1.7653 1.764-0.98856 5.9681 1.7344 9.3886s6.3638 4.7671 8.1291 3.0037 0.60022-5.9629-2.1227-9.3856-5.9755-4.7712-7.7408-3.0067z" fill="#f2a78a"/>
  <path d="m529.57 83.621c-1.752 1.7481-0.98415 5.9117 1.7123 9.299s6.3021 4.7181 8.0496 2.97 0.60022-5.907-2.0962-9.2961-5.9181-4.722-7.6657-2.9729z" fill="#f1a689"/>
  <path d="m529.62 83.659c-1.7344 1.7331-0.97532 5.8567 1.6947 9.2099s6.2403 4.6692 7.9746 2.936 0.60025-5.8512-2.0698-9.2064c-2.67-3.3528-5.8651-4.6732-7.5995-2.9395z" fill="#f0a589"/>
  <path d="m529.67 83.697c-1.7212 1.7172-0.97091 5.8008 1.6726 9.1199s6.1785 4.6207 7.8952 2.9033 0.60024-5.7963-2.0433-9.1175-5.8034-4.6239-7.5245-2.9058z" fill="#f0a48a"/>
  <path d="m529.72 83.736c-1.7079 1.7023-0.96649 5.7459 1.6505 9.0309 2.617 3.286 6.1167 4.5713 7.8202 2.8698s0.59582-5.741-2.0168-9.0277c-2.617-3.2852-5.7504-4.5752-7.4539-2.873z" fill="#f0a488"/>
  <path d="m529.77 83.775c-1.6902 1.6868-0.96207 5.69 1.6285 8.9414s6.0505 4.5223 7.7408 2.8362 0.60022-5.6851-1.9904-8.9383-5.693-4.5264-7.3789-2.8392z" fill="#f0a388"/>
  <path d="m529.82 83.813c-1.6726 1.6709-0.95326 5.6345 1.6108 8.8518s5.9931 4.474 7.6657 2.8024 0.5958-5.6297-1.9639-8.8488-5.6401-4.4777-7.3127-2.8054z" fill="#f0a288"/>
  <path d="m529.88 83.851c-1.6594 1.6559-0.94883 5.5786 1.5888 8.7622 2.5332 3.1846 5.9269 4.425 7.5863 2.7694s0.59577-5.5744-1.9374-8.7596c-2.5332-3.1828-5.5827-4.4284-7.2377-2.772z" fill="#f0a187"/>
  <path d="m529.93 83.89c-1.6461 1.64-0.94442 5.5232 1.5623 8.6727s5.8696 4.3761 7.5157 2.7362c1.6417-1.6397 0.59577-5.5189-1.9109-8.6706s-5.5253-4.3792-7.167-2.7383z" fill="#f0a187"/>
  <path d="m529.98 83.928c-1.6285 1.6245-0.9356 5.4677 1.5446 8.5836s5.8078 4.327 7.4362 2.7026 0.59579-5.4636-1.8844-8.5808-5.468-4.331-7.0964-2.7055z" fill="#f09f87"/>
  <path d="m530.03 83.967c-1.6108 1.6091-0.93119 5.4123 1.5226 8.4941s5.746 4.2782 7.3612 2.669c1.6109-1.6086 0.59137-5.4077-1.858-8.4915s-5.415-4.2816-7.0258-2.6716z" fill="#ef9e86"/>
  <path d="m530.08 84.005c-1.5976 1.5936-0.92677 5.3568 1.5005 8.405s5.6842 4.2287 7.2818 2.6354 0.59579-5.3524-1.8315-8.4022c-2.4229-3.0477-5.3576-4.2324-6.9508-2.6383z" fill="#ef9c86"/>
  <path d="m530.13 84.043c-1.5799 1.5782-0.91794 5.3009 1.4828 8.315 2.4008 3.0151 5.6224 4.1808 7.2068 2.6023s0.59137-5.2971-1.8094-8.3128c-2.3964-3.0134-5.2958-4.1836-6.8802-2.6045z" fill="#ef9c86"/>
  <path d="m530.19 84.081c-1.5667 1.5632-0.91354 5.246 1.4608 8.226s5.5606 4.1318 7.1273 2.5692 0.59137-5.2416-1.7785-8.2234-5.2429-4.1349-6.8096-2.5717z" fill="#ef9b85"/>
  <path d="m530.24 84.12c-1.5534 1.5473-0.90912 5.19 1.4387 8.1364 2.3434 2.9473 5.4988 4.0824 7.0479 2.5356s0.59579-5.1863-1.752-8.1346c-2.3434-2.9454-5.1855-4.0852-6.7346-2.5374z" fill="#ef9b84"/>
  <path d="m530.29 84.158c-1.5358 1.5323-0.9047 5.1346 1.4166 8.0473s5.4371 4.0334 6.9729 2.5019 0.59137-5.1304-1.7256-8.0446-5.1326-4.0369-6.6639-2.5046z" fill="#ef9b84"/>
  <path d="m530.34 84.198c-1.5181 1.5164-0.89588 5.0792 1.399 7.9578s5.3753 3.9845 6.8934 2.4683 0.59136-5.075-1.6991-7.9553-5.0752-3.9882-6.5933-2.4708z" fill="#ef9983"/>
  <path d="m530.39 84.236c-1.5049 1.5009-0.89147 5.0232 1.3725 7.8678 2.264 2.8455 5.3179 3.936 6.8228 2.4352s0.59137-5.0192-1.6726-7.8659c-2.264-2.8435-5.0178-3.9389-6.5227-2.437z" fill="#ef9883"/>
  <path d="m530.45 84.274c-1.4917 1.4855-0.88706 4.9683 1.3504 7.7787s5.2561 3.8871 6.7434 2.4021 0.59137-4.9643-1.6461-7.7766c-2.2331-2.8102-4.9604-3.8901-6.4477-2.4042z" fill="#ee9783"/>
  <path d="m530.49 84.312c-1.474 1.4701-0.87381 4.9124 1.3328 7.6892s5.1943 3.8381 6.6683 2.3685 0.58697-4.909-1.6196-7.6872-4.9075-3.8414-6.3815-2.3704z" fill="#ee9783"/>
  <path d="m530.55 84.351c-1.4564 1.4546-0.8694 4.8574 1.3107 7.6001s5.1326 3.7892 6.5889 2.3348 0.59137-4.8536-1.5932-7.5979-4.8501-3.7921-6.3065-2.337z" fill="#ee9682"/>
  <path d="m530.6 84.389c-1.4431 1.4391-0.86499 4.801 1.2886 7.5101s5.0708 3.7403 6.5139 2.3017 0.58696-4.7977-1.5667-7.5085-4.7927-3.7429-6.2358-2.3033z" fill="#ed9482"/>
  <path d="m530.65 84.428c-1.4299 1.4241-0.86057 4.746 1.2666 7.421 2.1272 2.6759 5.009 3.6913 6.4344 2.2681s0.58695-4.7423-1.5402-7.4191c-2.1272-2.6741-4.7354-3.6942-6.1608-2.27z" fill="#ed9482"/>
  <path d="m530.7 84.466c-1.4122 1.4082-0.85175 4.6901 1.2489 7.3315s4.9472 3.6429 6.3594 2.235 0.58695-4.6875-1.5137-7.3298-4.6824-3.6454-6.0946-2.2366z" fill="#ee9482"/>
  <path d="m530.76 84.505c-1.399 1.3928-0.84733 4.6352 1.2269 7.2424s4.8854 3.5934 6.28 2.2014c1.399-1.3921 0.58696-4.6316-1.4872-7.2404s-4.625-3.5961-6.0196-2.2034z" fill="#ee9282"/>
  <path d="m530.81 84.543c-1.3813 1.3773-0.84293 4.5793 1.2048 7.1529 2.0433 2.5736 4.8236 3.5445 6.205 2.1678s0.58254-4.5758-1.4608-7.1511c-2.0477-2.5722-4.5721-3.5474-5.949-2.1695z" fill="#ed9182"/>
  <path d="m530.86 84.581c-1.3637 1.3619-0.8341 4.5243 1.1872 7.0633s4.7574 3.496 6.1255 2.1346 0.58695-4.5204-1.4343-7.0617-4.5103-3.4986-5.8784-2.1363z" fill="#ed9181"/>
  <path d="m530.91 84.62c-1.3504 1.3465-0.82968 4.4679 1.1651 6.9738s4.6956 3.4472 6.0505 2.101 0.58254-4.465-1.4078-6.9719c-1.9948-2.5046-4.4573-3.4499-5.8078-2.1029z" fill="#ed9081"/>
  <path d="m530.96 84.659c-1.3372 1.3305-0.82527 4.4125 1.1386 6.8842 1.9683 2.4723 4.6383 3.3982 5.9755 2.0679s0.58254-4.4096-1.3813-6.8835-4.4-3.4001-5.7327-2.0686z" fill="#ed8e81"/>
  <path d="m531.01 84.696c-1.3195 1.3155-0.81644 4.3576 1.121 6.7952s4.5765 3.3493 5.896 2.0343 0.58695-4.3543-1.3548-6.7936c-1.933-2.4365-4.3426-3.3519-5.6622-2.0359z" fill="#ed8d80"/>
  <path d="m531.06 84.735c-1.3019 1.3001-0.81203 4.3016 1.0989 6.7052 1.9109 2.405 4.5147 3.3008 5.821 2.0012 1.3019-1.2992 0.58255-4.2989-1.3284-6.7043-1.9109-2.4027-4.2852-3.3026-5.5915-2.002z" fill="#ed8d80"/>
  <path d="m531.12 84.773c-1.2886 1.2846-0.80761 4.2462 1.0768 6.6161s4.4529 3.2514 5.7416 1.9675 0.58254-4.243-1.3019-6.6149-4.2278-3.2534-5.5165-1.9687z" fill="#ed8c7f"/>
  <path d="m531.17 84.812c-1.2754 1.2692-0.8032 4.1907 1.0548 6.5266s4.3911 3.2024 5.6666 1.9339c1.271-1.268 0.58255-4.1877-1.2754-6.5251-1.8536-2.3346-4.1749-3.2051-5.4459-1.9354z" fill="#ed8a7f"/>
  <path d="m531.22 84.85c-1.2578 1.2537-0.79437 4.1353 1.0371 6.4375s4.3294 3.154 5.5871 1.9008 0.58254-4.1328-1.2489-6.4362-4.1175-3.1559-5.3753-1.9021z" fill="#ed8a7e"/>
  <path d="m531.27 84.888c-1.2445 1.2378-0.78996 4.0794 1.015 6.348s4.2676 3.1045 5.5121 1.8672 0.57814-4.0774-1.2224-6.3468-4.0646-3.1071-5.3047-1.8683z" fill="#eb897d"/>
  <path d="m531.32 84.926c-1.2269 1.2229-0.78555 4.0244 0.99297 6.2584 1.7741 2.235 4.2058 3.0561 5.4327 1.834s0.58254-4.0216-1.196-6.2575c-1.7741-2.2328-4.0028-3.0578-5.2296-1.835z" fill="#eb877c"/>
  <path d="m531.37 84.965c-1.2092 1.2069-0.77672 3.9685 0.97533 6.1688s4.144 3.0072 5.3576 1.8004 0.57812-3.9657-1.1695-6.1681-3.9498-3.0086-5.1634-1.8012z" fill="#eb877c"/>
  <path d="m531.43 85.004c-1.196 1.1919-0.77231 3.9131 0.95325 6.0798 1.7212 2.1668 4.0822 2.9582 5.2782 1.7668s0.57813-3.9104-1.143-6.0783-3.8924-2.9603-5.0884-1.7684z" fill="#eb867b"/>
  <path d="m531.48 85.042c-1.1827 1.1765-0.7679 3.8576 0.92677 5.9903s4.0248 2.9088 5.2076 1.7337 0.57813-3.855-1.1165-5.9894-3.8395-2.9111-5.0178-1.7346z" fill="#ea847b"/>
  <path d="m531.53 85.08c-1.1651 1.1606-0.75906 3.8017 0.90913 5.9007s3.9631 2.8603 5.1281 1.7001 0.57812-3.7996-1.0901-5.9c-1.6638-2.0972-3.7777-2.8624-4.9472-1.7008z" fill="#ea837b"/>
  <path d="m531.58 85.118c-1.1518 1.1456-0.75466 3.7468 0.88705 5.8117s3.9013 2.8114 5.0531 1.6665 0.57371-3.7442-1.0636-5.8107c-1.6417-2.0628-3.7247-2.8131-4.8766-1.6675z" fill="#ea837b"/>
  <path d="m531.63 85.157c-1.1342 1.1297-0.74583 3.6909 0.86499 5.7217 1.6152 2.0313 3.8395 2.7624 4.9737 1.6334s0.57812-3.6889-1.0371-5.7208c-1.6108-2.0296-3.6674-2.7648-4.8016-1.6342z" fill="#ea8179"/>
  <path d="m531.69 85.196c-1.121 1.1147-0.74141 3.6354 0.84293 5.6326s3.7777 2.7135 4.8986 1.5997 0.57372-3.633-1.0106-5.6319c-1.5844-1.9948-3.6144-2.7151-4.731-1.6004z" fill="#ea8078"/>
  <path d="m531.73 85.234c-1.1033 1.0988-0.73259 3.5795 0.82527 5.543s3.7159 2.6646 4.8192 1.5666 0.57373-3.5781-0.98414-5.5426-3.557-2.6663-4.6603-1.5671z" fill="#ea8078"/>
  <path d="m531.79 85.272c-1.0901 1.0833-0.72818 3.5241 0.80321 5.453s3.6541 2.6161 4.7398 1.5335 0.57814-3.5223-0.95325-5.4532-3.4997-2.6176-4.5897-1.5333z" fill="#ea7e77"/>
  <path d="m531.84 85.31c-1.0768 1.0679-0.72376 3.4686 0.78114 5.3639s3.5923 2.5672 4.6648 1.4999 0.57372-3.4669-0.93118-5.3638c-1.5049-1.8934-3.4423-2.5684-4.5147-1.5z" fill="#ea7d78"/>
  <path d="m531.89 85.349c-1.0548 1.0529-0.71494 3.4137 0.76348 5.2749 1.474 1.8617 3.5262 2.5182 4.5853 1.4663s0.57371-3.4115-0.9003-5.274c-1.4784-1.8601-3.3893-2.5196-4.4485-1.4672z" fill="#e97c77"/>
  <path d="m531.94 85.388c-1.0415 1.0375-0.71053 3.3578 0.74142 5.1854s3.4644 2.4693 4.5103 1.4326c1.0415-1.0362 0.57371-3.3557-0.87823-5.1846s-3.332-2.4708-4.3735-1.4334z" fill="#e97c77"/>
  <path d="m531.99 85.425c-1.0283 1.022-0.70612 3.3023 0.71494 5.0963 1.4255 1.794 3.407 2.4199 4.4353 1.3995s0.57371-3.3008-0.84734-5.0958c-1.4255-1.7915-3.2746-2.422-4.3029-1.4z" fill="#e97a76"/>
  <path d="m532.05 85.464c-1.015 1.0061-0.7017 3.2469 0.69287 5.0063 1.399 1.7604 3.3452 2.3714 4.3602 1.3664 1.0106-1.0055 0.56929-3.2454-0.82528-5.0064s-3.2172-2.3728-4.2278-1.3662z" fill="#e97a76"/>
  <path d="m532.1 85.502c-0.99738 0.99108-0.69287 3.1914 0.67523 4.9172s3.2834 2.323 4.2808 1.3328 0.57371-3.1896-0.79879-4.9171c-1.3637-1.7235-3.1598-2.3236-4.1572-1.3329z" fill="#e87975"/>
  <path d="m532.15 85.541c-0.97973 0.97517-0.68846 3.1355 0.65316 4.8277s3.2216 2.2735 4.2058 1.2992 0.56931-3.1342-0.77231-4.8277-3.1069-2.2748-4.0866-1.2991z" fill="#e87975"/>
  <path d="m532.2 85.58c-0.96649 0.95974-0.68405 3.0801 0.63109 4.7382s3.1598 2.2246 4.1263 1.2656 0.56931-3.0784-0.74583-4.7378c-1.3107-1.6559-3.0495-2.2261-4.0116-1.2658z" fill="#e87875"/>
  <path d="m532.25 85.618c-0.94884 0.94427-0.67522 3.0246 0.61344 4.6486s3.0981 2.1762 4.0513 1.2324 0.56931-3.023-0.71934-4.6485c-1.2887-1.6221-2.9922-2.1768-3.9454-1.2325z" fill="#e87775"/>
  <path d="m532.3 85.656c-0.9356 0.92884-0.67081 2.9687 0.59137 4.559s3.0363 2.1272 3.9719 1.1993 0.56931-2.9681-0.69287-4.5596-2.9348-2.128-3.8704-1.1987z" fill="#e87673"/>
  <path d="m532.36 85.695c-0.92236 0.91342-0.66639 2.9128 0.56931 4.4695 1.2313 1.5567 2.9745 2.0783 3.8924 1.1657s0.56931-2.9122-0.66197-4.4698c-1.2313-1.5545-2.8818-2.0793-3.7998-1.1654z" fill="#e87673"/>
  <path d="m532.41 85.733c-0.90029 0.89795-0.65756 2.8578 0.55166 4.3804 1.2048 1.5226 2.9127 2.0293 3.8174 1.1321s0.56931-2.8569-0.63991-4.3809c-1.2048-1.5198-2.8244-2.0295-3.7292-1.1316z" fill="#e87573"/>
  <path d="m532.46 85.772c-0.88705 0.88248-0.65315 2.8019 0.52518 4.2909s2.8553 1.9804 3.7424 1.0985 0.5693-2.8013-0.60902-4.2911-2.7671-1.9813-3.6586-1.0983z" fill="#e87473"/>
  <path d="m532.51 85.81c-0.87381 0.86705-0.64874 2.747 0.50311 4.2019s2.7936 1.931 3.6674 1.0648 0.56489-2.7457-0.58696-4.2017c-1.1518-1.4522-2.7097-1.9325-3.5835-1.065z" fill="#e87472"/>
  <path d="m532.56 85.848c-0.86058 0.85157-0.64433 2.6915 0.48104 4.1123s2.7318 1.8825 3.5879 1.0322 0.56931-2.6906-0.55605-4.1128-2.6568-1.8833-3.5129-1.0317z" fill="#e87472"/>
  <path d="m532.61 85.886c-0.84292 0.83616-0.6355 2.6361 0.46339 4.0228s2.67 1.8341 3.5129 0.9986 0.56489-2.635-0.53399-4.023c-1.0945-1.3845-2.5994-1.8345-3.4423-0.99835z" fill="#e87272"/>
  <path d="m532.67 85.925c-0.82527 0.82068-0.62668 2.5801 0.44132 3.9337s2.6082 1.7846 3.4335 0.96498 0.56489-2.5794-0.50311-3.9336-2.5464-1.7858-3.3717-0.96503z" fill="#e87171"/>
  <path d="m532.72 85.963c-0.81203 0.80526-0.62668 2.5247 0.41926 3.8442 1.0415 1.3189 2.5464 1.7357 3.3584 0.93137s0.56489-2.5239-0.48104-3.8443c-1.0415-1.3165-2.4846-1.7365-3.2967-0.93127z" fill="#e86f70"/>
  <path d="m532.77 86.002c-0.79879 0.78983-0.62226 2.4688 0.39719 3.7546s2.4846 1.6867 3.279 0.89775c0.79879-0.78899 0.56489-2.4683-0.45456-3.7549-1.0106-1.2827-2.4273-1.6872-3.2216-0.89746z" fill="#e86f70"/>
  <path d="m532.82 86.041c-0.78114 0.77436-0.60902 2.4138 0.37954 3.665s2.4228 1.6383 3.204 0.86463 0.56048-2.4128-0.42809-3.6655-2.3743-1.6385-3.1554-0.86414z" fill="#e86e70"/>
  <path d="m532.87 86.079c-0.7679 0.75888-0.60461 2.3579 0.35747 3.5755s2.3611 1.5888 3.1245 0.83151c0.7679-0.75785 0.5649-2.3577-0.4016-3.5767-0.95766-1.2142-2.3169-1.5893-3.0804-0.83037z" fill="#e76d6f"/>
  <path d="m532.93 86.117c-0.75024 0.74297-0.60019 2.3025 0.33541 3.486 0.93118 1.1835 2.2949 1.5404 3.0495 0.79788s0.56048-2.3021-0.37512-3.4868-2.2596-1.5405-3.0098-0.79705z" fill="#e76c6f"/>
  <path d="m532.97428,86.15555c-.73259.72799-.59137,2.24655.31775,3.39642 .90471,1.14987 2.2375,1.49195 2.97009.76476 .737-.7267.56047-2.24654-.34864-3.39745-.90471-1.14661-2.2022-1.49177-2.9392-.76373z" fill="#e76c6f"/>
  <path d="m533.03 86.195c-0.71935 0.71207-0.58695 2.1911 0.29127 3.3069s2.1757 1.4425 2.8951 0.73114 0.56489-2.191-0.31774-3.3081c-0.87823-1.1127-2.1492-1.443-2.8686-0.72991z" fill="#e76a6f"/>
  <path d="m533.08 86.233c-0.70611 0.69714-0.58254 2.1362 0.26921 3.2179 0.85615 1.0816 2.1139 1.3936 2.82 0.69753 0.7017-0.69557 0.56048-2.1354-0.29568-3.2182-0.85175-1.0795-2.0919-1.3942-2.7936-0.69714z" fill="#e7696d"/>
  <path d="m533.13 86.272c-0.68846 0.68117-0.57372 2.0802 0.25155 3.1283s2.0521 1.3446 2.7406 0.66441 0.56048-2.0808-0.2648-3.1299c-0.82526-1.0447-2.0389-1.3445-2.7274-0.66283z" fill="#e6676d"/>
  <path d="m533.18 86.309c-0.67081 0.66624-0.56931 2.0252 0.22948 3.0392s1.9904 1.2957 2.6656 0.6308c0.67081-0.66541 0.56048-2.0248-0.24272-3.04-0.79878-1.0114-1.9771-1.2962-2.6523-0.63001z" fill="#e7666d"/>
  <path d="m533.24 86.347c-0.65757 0.65122-0.56489 1.9696 0.20742 2.9497s1.9286 1.2473 2.5861 0.59768 0.56047-1.9692-0.21184-2.9507-1.9242-1.247-2.5817-0.59669z" fill="#e7666d"/>
  <path d="m533.29 86.386c-0.64433 0.63529-0.56048 1.9141 0.18535 2.8601s1.8668 1.1983 2.5111 0.56406 0.55605-1.9136-0.18977-2.8613c-0.74142-0.94283-1.8668-1.1977-2.5067-0.56287z" fill="#e6656c"/>
  <path d="m569.07 101.81c-0.0397 3.1619-4.1175 5.6554-9.1045 5.5738-4.9825-0.0801-8.9941-2.7056-8.9544-5.865s4.4441-5.2234 9.431-5.1428 8.6676 2.275 8.6278 5.434z" fill="#f4b891"/>
  <path d="m569.01 101.79c-0.0441 3.1387-4.0866 5.6144-9.0294 5.5333-4.9472-0.0791-8.9235-2.6848-8.8838-5.8215s4.4088-5.1868 9.3516-5.1067c4.9472 0.08009 8.6013 2.2592 8.5616 5.3949z" fill="#f4b791"/>
  <path d="m568.95 101.78c-0.0397 3.1154-4.047 5.5734-8.9544 5.4928-4.9031-0.0781-8.8485-2.6651-8.8088-5.7785s4.3691-5.1497 9.2721-5.0701c4.9074 0.0791 8.5308 2.2439 8.491 5.3558z" fill="#f4b791"/>
  <path d="m568.89 101.76c-0.0441 3.0922-4.0204 5.5313-8.8838 5.4518s-8.7734-2.6448-8.7381-5.735 4.3382-5.1126 9.2015-5.0345 8.4557 2.2286 8.4204 5.3178z" fill="#f4b690"/>
  <path d="m568.83 101.74c-0.0398 3.0695-3.9808 5.4903-8.8044 5.4117s-8.7028-2.625-8.6675-5.692 4.2985-5.076 9.1221-4.9984 8.3895 2.2127 8.3498 5.2787z" fill="#f4b590"/>
  <path d="m568.77 101.72c-0.0397 3.0457-3.9455 5.4488-8.7293 5.3707s-8.6278-2.6048-8.5925-5.6485 4.2587-5.0394 9.0426-4.9623 8.3189 2.1974 8.2792 5.2402z" fill="#f4b490"/>
  <path d="m568.71 101.7c-0.0398 3.0225-3.9146 5.4078-8.6588 5.3301s-8.5528-2.5845-8.5175-5.6055 4.2234-5.0024 8.9632-4.9258 8.2527 2.1816 8.213 5.2011z" fill="#f3b490"/>
  <path d="m568.65 101.68c-0.0353 2.9992-3.8792 5.3657-8.5837 5.2891-4.7-0.0742-8.4822-2.5642-8.4424-5.562s4.1837-4.9653 8.8882-4.8897 8.1776 2.1658 8.1379 5.1626z" fill="#f3b38f"/>
  <path d="m568.59 101.66c-0.0397 2.9765-3.8483 5.3247-8.5087 5.2491-4.6603-0.0742-8.4116-2.5444-8.3762-5.519s4.1528-4.9287 8.8132-4.8541c4.6604 0.07514 8.1071 2.1504 8.0718 5.124z" fill="#f3b28e"/>
  <path d="m568.53 101.65c-0.0353 2.9528-3.813 5.2832-8.4336 5.2075-4.6206-0.0727-8.3365-2.5237-8.3012-5.475s4.1131-4.8921 8.7337-4.818 8.0408 2.1351 8.0011 5.0854z" fill="#f2b18f"/>
  <path d="m568.47 101.63c-0.0397 2.9296-3.7821 5.2421-8.363 5.1675s-8.2615-2.5044-8.2262-5.432 4.0778-4.855 8.6543-4.7824 7.9703 2.1198 7.935 5.0469z" fill="#f2b18d"/>
  <path d="m568.41 101.61c-0.0353 2.9063-3.7468 5.2006-8.2836 5.127s-8.1909-2.4846-8.1556-5.3894 4.0381-4.818 8.5748-4.7458 7.8996 2.104 7.8643 5.0083z" fill="#f3b08e"/>
  <path d="m568.35 101.59c-0.0397 2.8836-3.716 5.1591-8.213 5.0864s-8.1159-2.4639-8.0806-5.346 3.9984-4.7814 8.4998-4.7097 7.829 2.0886 7.7938 4.9693z" fill="#f3af8e"/>
  <path d="m568.29 101.57c-0.0353 2.8608-3.6806 5.1181-8.138 5.0459s-8.0408-2.4441-8.01-5.303c0.0397-2.8579 3.9675-4.7443 8.4248-4.6731s7.7584 2.0728 7.7231 4.9302z" fill="#f3ae8e"/>
  <path d="m568.23 101.55c-0.0397 2.8371-3.6498 5.0765-8.0674 5.0048-4.4132-0.0692-7.9658-2.4238-7.9349-5.2594 0.0397-2.8351 3.9278-4.7077 8.3454-4.637s7.6922 2.057 7.6569 4.8916z" fill="#f3ae8d"/>
  <path d="m568.17 101.53c-0.0352 2.8144-3.6143 5.035-7.9879 4.9648-4.3779-0.0687-7.8996-2.404-7.8643-5.2164s3.8924-4.6707 8.2659-4.6015c4.3779 0.0702 7.6216 2.0422 7.5863 4.8531z" fill="#f2ac8d"/>
  <path d="m568.11 101.52c-0.0353 2.7906-3.5791 4.9935-7.9129 4.9238s-7.8246-2.3838-7.7893-5.1729 3.8527-4.6341 8.1865-4.5654c4.3382 0.06921 7.551 2.0264 7.5157 4.8145z" fill="#f2ac8c"/>
  <path d="m568.05 101.5c-0.0352 2.7679-3.5438 4.9524-7.8422 4.8832-4.294-0.0672-7.7496-2.3635-7.7143-5.1299s3.8174-4.597 8.1115-4.5293 7.4804 2.011 7.445 4.776z" fill="#f1ab8c"/>
  <path d="m567.99 101.48c-0.0353 2.7447-3.5086 4.9114-7.7629 4.8427s-7.679-2.3432-7.6437-5.0864 3.7777-4.5599 8.032-4.4932 7.4097 1.9952 7.3745 4.7369z" fill="#f1ab8c"/>
  <path d="m567.93 101.46c-0.0353 2.7214-3.4776 4.8694-7.6922 4.8022s-7.604-2.3235-7.5731-5.0434c0.0353-2.719 3.7424-4.5234 7.957-4.4571s7.3436 1.9799 7.3082 4.6983z" fill="#f2a98a"/>
  <path d="m567.87 101.44c-0.031 2.6982-3.4424 4.8284-7.6172 4.7616s-7.5289-2.3037-7.498-4.9999c0.0353-2.6962 3.7071-4.4868 7.8776-4.421s7.2729 1.9641 7.2377 4.6593z" fill="#f2a88b"/>
  <path d="m567.81 101.42c-0.0353 2.6744-3.4114 4.7868-7.5466 4.7206-4.1308-0.0643-7.4539-2.2834-7.423-4.9564 0.0353-2.673 3.6674-4.4502 7.7981-4.3854 4.1352 0.06624 7.2024 1.9488 7.1714 4.6212z" fill="#f2a88a"/>
  <path d="m567.75 101.4c-0.0308 2.6517-3.376 4.7458-7.4671 4.68-4.0954-0.0638-7.3833-2.2632-7.3524-4.9134 0.0353-2.6498 3.6321-4.4131 7.7231-4.3488 4.091 0.06525 7.1317 1.9334 7.0964 4.5822z" fill="#f2a78a"/>
  <path d="m567.69 101.39c-0.0353 2.629-3.3452 4.7048-7.3965 4.6395-4.0513-0.0628-7.3083-2.2429-7.2774-4.8699s3.5924-4.376 7.6437-4.3128 7.0612 1.9176 7.0302 4.5431z" fill="#f1a689"/>
  <path d="m567.63 101.37c-0.0308 2.6053-3.3099 4.6628-7.3214 4.599s-7.2332-2.2231-7.2068-4.8269c0.0353-2.6033 3.557-4.3394 7.5686-4.2767s6.9905 1.9018 6.9596 4.5046z" fill="#f0a589"/>
  <path d="m567.57 101.35c-0.0352 2.582-3.279 4.6212-7.2508 4.558s-7.1626-2.2028-7.1317-4.7834c0.0353-2.5805 3.5217-4.3029 7.4892-4.2406s6.9243 1.8865 6.8934 4.466z" fill="#f0a48a"/>
  <path d="m567.51 101.33c-0.031 2.5588-3.2437 4.5802-7.1715 4.5174s-7.092-2.1826-7.0611-4.7404 3.482-4.2653 7.4142-4.204 6.8493 1.8706 6.8184 4.427z" fill="#f0a488"/>
  <path d="m567.46 101.31c-0.0352 2.5355-3.2128 4.5382-7.1008 4.4764s-7.017-2.1623-6.9861-4.6969 3.4467-4.2287 7.3348-4.1684 6.7831 1.8553 6.7522 4.3889z" fill="#f0a388"/>
  <path d="m567.39 101.29c-0.031 2.5123-3.1775 4.4976-7.0258 4.4363s-6.942-2.1426-6.9111-4.6539 3.407-4.1921 7.2553-4.1323 6.7125 1.84 6.6816 4.3498z" fill="#f0a288"/>
  <path d="m567.33 101.27c-0.0309 2.4896-3.1422 4.4561-6.9464 4.3958-3.8086-0.0583-6.8714-2.1228-6.8405-4.6104s3.3717-4.1556 7.1759-4.0967c3.8086 0.06031 6.6418 1.8247 6.611 4.3113z" fill="#f0a187"/>
  <path d="m567.27 101.26c-0.031 2.4663-3.1114 4.4146-6.8758 4.3548-3.7689-0.0573-6.7963-2.1025-6.7698-4.5668s3.3364-4.119 7.1008-4.0606c3.7689 0.05932 6.5757 1.8088 6.5448 4.2727z" fill="#f0a187"/>
  <path d="m567.21 101.24c-0.0265 2.4431-3.0716 4.3731-6.8008 4.3147-3.7247-0.0578-6.7213-2.0827-6.6948-4.5243s3.2967-4.0819 7.0258-4.024c3.7247 0.05833 6.5006 1.793 6.4698 4.2336z" fill="#f09f87"/>
  <path d="m567.15 101.22c-0.031 2.4199-3.0407 4.332-6.7258 4.2737s-6.6507-2.0624-6.6242-4.4808 3.2614-4.0448 6.9464-3.988 6.4301 1.7777 6.4036 4.1951z" fill="#ef9e86"/>
  <path d="m567.09 101.2c-0.0265 2.3966-3.0054 4.2905-6.6507 4.2332s-6.5757-2.0422-6.5492-4.4373 3.2216-4.0082 6.8669-3.9524 6.3638 1.7624 6.333 4.1565z" fill="#ef9c86"/>
  <path d="m567.04 101.18c-0.031 2.3739-2.9745 4.2495-6.5801 4.1926-3.6056-0.0549-6.5051-2.0219-6.4742-4.3938s3.1863-3.9716 6.7875-3.9163c3.6056 0.05636 6.2932 1.7466 6.2668 4.1175z" fill="#ef9c86"/>
  <path d="m566.97 101.16c-0.0265 2.3502-2.9392 4.208-6.505 4.1521-3.5615-0.0544-6.43-2.0021-6.4036-4.3513s3.151-3.9346 6.7125-3.8797c3.5659 0.05586 6.2271 1.7312 6.1961 4.0789z" fill="#ef9b85"/>
  <path d="m566.92 101.14c-0.031 2.3274-2.9083 4.1664-6.43 4.1116-3.5262-0.0539-6.3594-1.9819-6.333-4.3078s3.1113-3.898 6.6375-3.8436c3.5217 0.05487 6.152 1.7154 6.1255 4.0399z" fill="#ef9b84"/>
  <path d="m566.86 101.13c-0.0265 2.3037-2.873 4.1249-6.355 4.0705s-6.2844-1.9621-6.2579-4.2648 3.076-3.8604 6.558-3.8075 6.0859 1.7001 6.0549 4.0018z" fill="#ef9b84"/>
  <path d="m566.8 101.11c-0.031 2.281-2.8421 4.0839-6.2844 4.03s-6.2094-1.9413-6.1829-4.2213 3.0363-3.8238 6.4786-3.7714 6.0152 1.6848 5.9887 3.9628z" fill="#ef9983"/>
  <path d="m566.74 101.09c-0.0265 2.2577-2.8068 4.0428-6.2094 3.9899s-6.1344-1.922-6.1079-4.1783 3.001-3.7872 6.3991-3.7358 5.9446 1.6694 5.9181 3.9242z" fill="#ef9883"/>
  <path d="m566.67 101.07c-0.0265 2.2345-2.7714 4.0013-6.1299 3.9489s-6.0637-1.9018-6.0417-4.1348c0.0309-2.2325 2.9657-3.7502 6.3285-3.6998s5.874 1.6536 5.843 3.8856z" fill="#ee9783"/>
  <path d="m566.62 101.05c-0.0265 2.2107-2.7406 3.9593-6.0593 3.9079s-5.9887-1.8815-5.9666-4.0913c0.0265-2.2098 2.926-3.7136 6.2491-3.6637s5.8034 1.6378 5.7769 3.8471z" fill="#ee9783"/>
  <path d="m566.55 101.03c-0.022 2.188-2.7052 3.9183-5.9843 3.8674s-5.9137-1.8612-5.8916-4.0483c0.0265-2.186 2.8906-3.6765 6.1696-3.6271s5.7327 1.6225 5.7062 3.808z" fill="#ee9682"/>
  <path d="m566.5 101.01c-0.0265 2.1653-2.6744 3.8772-5.9092 3.8268-3.2393-0.048-5.8475-1.841-5.821-4.0048s2.8509-3.6399 6.0902-3.591 5.6665 1.6067 5.64 3.769z" fill="#ed9482"/>
  <path d="m566.44 101c-0.0221 2.1416-2.6391 3.8357-5.8343 3.7863s-5.7725-1.8217-5.746-3.9618 2.8156-3.6029 6.0108-3.5554 5.596 1.5913 5.5695 3.7309z" fill="#ed9482"/>
  <path d="m566.38 100.98c-0.0265 2.1183-2.6038 3.7942-5.7636 3.7457s-5.6974-1.8009-5.671-3.9182c0.0221-2.1168 2.7759-3.5663 5.9358-3.5193s5.5253 1.5755 5.4988 3.6918z" fill="#ee9482"/>
  <path d="m566.32 100.96c-0.0221 2.0951-2.5685 3.7526-5.6886 3.7047s-5.6224-1.7807-5.6004-3.8752c0.0265-2.0931 2.745-3.5292 5.8607-3.4827s5.4547 1.5602 5.4282 3.6533z" fill="#ee9282"/>
  <path d="m566.26 100.94c-0.0265 2.0723-2.5376 3.7116-5.6136 3.6642s-5.5518-1.7604-5.5297-3.8317c0.0265-2.0704 2.7053-3.4921 5.7813-3.4466s5.3841 1.5444 5.362 3.6142z" fill="#ed9182"/>
  <path d="m566.2 100.92c-0.0221 2.0491-2.5023 3.6701-5.5386 3.6241-3.0363-0.045-5.4768-1.7411-5.4547-3.7887s2.6656-3.4556 5.7018-3.4106c3.0363 0.04597 5.3179 1.5286 5.2914 3.5752z" fill="#ed9181"/>
  <path d="m566.14 100.9c-0.0265 2.0259-2.4714 3.6286-5.468 3.5831-2.9922-0.044-5.4018-1.7208-5.3797-3.7452s2.6303-3.419 5.6224-3.375c2.9966 0.04548 5.2473 1.5137 5.2252 3.5371z" fill="#ed9081"/>
  <path d="m566.08 100.88c-0.0221 2.0026-2.4361 3.5875-5.3885 3.5426-2.9568-0.0435-5.3312-1.7006-5.3091-3.7017s2.5905-3.3824 5.5474-3.3389c2.9524 0.04499 5.1723 1.4979 5.1502 3.498z" fill="#ed8e81"/>
  <path d="m566.02 100.87c-0.0221 1.9794-2.4052 3.546-5.3179 3.502s-5.2561-1.6808-5.2385-3.6592c0.0265-1.9779 2.5597-3.3453 5.4724-3.3028s5.1061 1.4831 5.084 3.46z" fill="#ed8d80"/>
  <path d="m565.96 100.85c-0.0221 1.9562-2.3699 3.5045-5.2429 3.4615s-5.1855-1.6606-5.1634-3.6157c0.0221-1.9547 2.5199-3.3082 5.3929-3.2667s5.0355 1.4668 5.0134 3.4209z" fill="#ed8d80"/>
  <path d="m565.9 100.83c-0.0221 1.9334-2.3346 3.4634-5.1679 3.4209s-5.1105-1.6403-5.0884-3.5722 2.4846-3.2716 5.3135-3.2306 4.9693 1.4514 4.9428 3.3819z" fill="#ed8c7f"/>
  <path d="m565.84 100.81c-0.0221 1.9102-2.3037 3.4219-5.0928 3.3799s-5.0399-1.62-5.0178-3.5287 2.4449-3.235 5.2341-3.1945 4.8986 1.4356 4.8766 3.3433z" fill="#ed8a7f"/>
  <path d="m565.78 100.79c-0.0177 1.887-2.2684 3.3809-5.0178 3.3399s-4.9649-1.6007-4.9428-3.4862c0.0221-1.885 2.4052-3.1975 5.159-3.1579s4.8236 1.4203 4.8016 3.3043z" fill="#ed8a7e"/>
  <path d="m565.72 100.77c-0.0221 1.8632-2.2375 3.3394-4.9472 3.2988s-4.8898-1.58-4.8678-3.4427 2.3699-3.1609 5.0796-3.1223 4.7574 1.405 4.7354 3.2662z" fill="#eb897d"/>
  <path d="m565.66 100.75c-0.0177 1.84-2.2022 3.2974-4.8722 3.2578s-4.8148-1.5597-4.7972-3.3992 2.3346-3.1243 5.0046-3.0863 4.6868 1.3891 4.6648 3.2276z" fill="#eb877c"/>
  <path d="m565.6 100.74c-0.0221 1.8172-2.1669 3.2563-4.7972 3.2173s-4.7442-1.5394-4.7266-3.3557 2.2993-3.0877 4.9251-3.0507 4.6162 1.3743 4.5986 3.1891z" fill="#eb877c"/>
  <path d="m565.54 100.72c-0.0177 1.794-2.1316 3.2153-4.7221 3.1772s-4.6692-1.5201-4.6515-3.3132 2.2596-3.0502 4.8501-3.0141 4.5456 1.358 4.5235 3.15z" fill="#eb867b"/>
  <path d="m565.48 100.7c-0.0221 1.7703-2.1007 3.1738-4.6515 3.1362s-4.5986-1.4999-4.5765-3.2697 2.2198-3.0136 4.7707-2.978 4.475 1.3427 4.4573 3.1115z" fill="#ea847b"/>
  <path d="m565.42 100.68c-0.0177 1.7475-2.0654 3.1327-4.5721 3.0956s-4.5279-1.4796-4.5059-3.2262 2.1845-2.977 4.6912-2.9419 4.4088 1.3268 4.3867 3.0724z" fill="#ea837b"/>
  <path d="m565.36 100.66c-0.0221 1.7243-2.0345 3.0907-4.5015 3.0546-2.467-0.0346-4.4529-1.4593-4.4353-3.1832s2.1492-2.9399 4.6162-2.9053c2.467 0.03609 4.3382 1.3115 4.3205 3.0338z" fill="#ea837b"/>
  <path d="m565.3 100.64c-0.0177 1.7011-1.9992 3.0497-4.4264 3.0146-2.4273-0.0341-4.3779-1.4396-4.3602-3.1402s2.1139-2.9028 4.5368-2.8697c2.4273 0.03609 4.272 1.2957 4.2499 2.9953z" fill="#ea8179"/>
  <path d="m565.24 100.62c-0.0132 1.6778-1.9639 3.0086-4.3514 2.974-2.3831-0.0331-4.3029-1.4193-4.2852-3.0966s2.0742-2.8663 4.4618-2.8336c2.3831 0.0351 4.197 1.2804 4.1749 2.9562z" fill="#ea8078"/>
  <path d="m565.18 100.61c-0.0177 1.6546-1.933 2.9671-4.2764 2.933-2.3478-0.0326-4.2323-1.399-4.2146-3.0531s2.0345-2.8297 4.3823-2.798c2.3434 0.0346 4.1264 1.2656 4.1087 2.9182z" fill="#ea8078"/>
  <path d="m565.12 100.59c-0.0132 1.6319-1.8977 2.9256-4.2014 2.8925s-4.1572-1.3792-4.1396-3.0101 1.9992-2.7926 4.3029-2.7615 4.0601 1.2497 4.0381 2.8791z" fill="#ea7e77"/>
  <path d="m565.06 100.57c-0.0177 1.6081-1.8668 2.8841-4.1308 2.8519s-4.0822-1.359-4.069-2.9671c0.0177-1.6066 1.9639-2.756 4.2278-2.7254s3.9895 1.2339 3.9719 2.8406z" fill="#ea7d78"/>
  <path d="m565 100.55c-0.0132 1.5854-1.8315 2.843-4.0513 2.8114s-4.0116-1.3387-3.9984-2.9236c0.0177-1.5839 1.9286-2.7194 4.1484-2.6893s3.9189 1.2181 3.9013 2.8015z" fill="#e97c77"/>
  <path d="m564.94 100.53c-0.0176 1.5627-1.8006 2.8015-3.9807 2.7709s-3.941-1.3189-3.9233-2.8801 1.8888-2.6824 4.0734-2.6532 3.8483 1.2028 3.8306 2.7624z" fill="#e97c77"/>
  <path d="m564.88 100.51c-0.0132 1.5389-1.7653 2.76-3.9057 2.7303s-3.866-1.2992-3.8483-2.8376c0.0132-1.5369 1.8491-2.6453 3.994-2.6171s3.7777 1.187 3.76 2.7244z" fill="#e97a76"/>
  <path d="m564.82 100.49c-0.0177 1.5157-1.7344 2.719-3.8351 2.6898s-3.7909-1.2789-3.7733-2.7941c0.0132-1.5142 1.8138-2.6087 3.9145-2.581s3.7115 1.1716 3.6938 2.6853z" fill="#e97a76"/>
  <path d="m564.76 100.48c-0.0132 1.4924-1.6991 2.6774-3.7556 2.6488s-3.7203-1.2586-3.7071-2.7506c0.0177-1.4915 1.7785-2.5721 3.8395-2.5449s3.6409 1.1558 3.6232 2.6468z" fill="#e87975"/>
  <path d="m564.71 100.46c-0.0176 1.4697-1.6638 2.6364-3.685 2.6082s-3.6453-1.2384-3.6321-2.7071c0.0177-1.4677 1.7432-2.535 3.76-2.5088s3.5703 1.1405 3.557 2.6077z" fill="#e87975"/>
  <path d="m564.64 100.44c-0.0132 1.446-1.6285 2.5944-3.61 2.5672s-3.5703-1.2186-3.557-2.6636 1.7035-2.4985 3.685-2.4728 3.4997 1.1247 3.482 2.5692z" fill="#e87875"/>
  <path d="m564.59 100.42c-0.0177 1.4228-1.5976 2.5534-3.535 2.5271s-3.4997-1.1983-3.4864-2.6211 1.6682-2.4614 3.6056-2.4367c1.9374 0.0267 3.429 1.1093 3.4158 2.5306z" fill="#e87775"/>
  <path d="m564.52 100.4c-0.0132 1.3995-1.5623 2.5118-3.46 2.4861-1.8977-0.0242-3.4246-1.1785-3.4114-2.5776s1.6285-2.4243 3.5262-2.4006c1.8977 0.0262 3.3584 1.094 3.3452 2.492z" fill="#e87673"/>
  <path d="m564.46 100.38c-9e-3 1.3768-1.527 2.4708-3.3849 2.4456-1.858-0.0232-3.3496-1.1583-3.3408-2.5341 0.0177-1.3753 1.5932-2.3877 3.4511-2.365 1.858 0.02571 3.2922 1.0787 3.2746 2.4535z" fill="#e87673"/>
  <path d="m564.41 100.36c-0.0132 1.353-1.4961 2.4288-3.3143 2.4046-1.8138-0.0227-3.2746-1.138-3.2658-2.4906s1.5579-2.3512 3.3761-2.3289c1.8138 0.02521 3.2172 1.0629 3.204 2.4149z" fill="#e87573"/>
  <path d="m564.34 100.35c-9e-3 1.3298-1.4608 2.3877-3.2349 2.3645-1.7785-0.0227-3.2084-1.1182-3.1952-2.448s1.5182-2.3136 3.2967-2.2923c1.7741 0.02422 3.151 1.047 3.1334 2.3759z" fill="#e87473"/>
  <path d="m564.29 100.33c-0.0133 1.3071-1.4299 2.3467-3.1643 2.324s-3.1334-1.098-3.1201-2.4046 1.4828-2.2775 3.2172-2.2562 3.0804 1.0317 3.0672 2.3368z" fill="#e87472"/>
  <path d="m564.22 100.31c-9e-3 1.2838-1.3946 2.3052-3.0892 2.2829s-3.0584-1.0777-3.0451-2.361 1.4431-2.2404 3.1378-2.2206 3.0098 1.0164 2.9966 2.2987z" fill="#e87472"/>
  <path d="m564.17 100.29c-0.0132 1.2606-1.3637 2.2637-3.0186 2.2424s-2.9833-1.0574-2.9701-2.3175 1.4078-2.2038 3.0584-2.1846 2.9436 1.0006 2.9304 2.2597z" fill="#e87272"/>
  <path d="m564.11 100.27c-9e-3 1.2369-1.3284 2.2221-2.9392 2.2018-1.6152-0.0193-2.9127-1.0376-2.9039-2.2745s1.3725-2.1672 2.9877-2.1485c1.6108 0.02126 2.8686 0.98525 2.8553 2.2211z" fill="#e87171"/>
  <path d="m564.05 100.25c-0.0133 1.2141-1.2975 2.1811-2.8686 2.1613s-2.8377-1.0179-2.8289-2.2315 1.3328-2.1297 2.9083-2.1119c1.5711 0.02027 2.8024 0.96943 2.7892 2.1821z" fill="#e86f70"/>
  <path d="m563.99 100.23c-9e-3 1.1914-1.2578 2.1396-2.7936 2.1208-1.5314-0.0178-2.7627-0.99761-2.7538-2.188s1.2975-2.0931 2.8289-2.0763 2.7318 0.9541 2.7185 2.1435z" fill="#e86f70"/>
  <path d="m563.93 100.22c-0.0132 1.1677-1.2269 2.0985-2.7185 2.0802s-2.692-0.97734-2.6832-2.1455 1.2578-2.056 2.7494-2.0397 2.6612 0.93829 2.6523 2.105z" fill="#e86e70"/>
  <path d="m563.87 100.2c-9e-3 1.1449-1.1916 2.057-2.6435 2.0397s-2.6214-0.95757-2.6082-2.102 1.2225-2.0194 2.67-2.0041 2.595 0.92346 2.5817 2.0664z" fill="#e76d6f"/>
  <path d="m563.81 100.18c-4e-3 1.1212-1.1563 2.015-2.5685 1.9982s-2.5464-0.93729-2.5376-2.0585 1.1872-1.9829 2.5994-1.968c1.4078 0.01829 2.5199 0.90763 2.5067 2.0283z" fill="#e76c6f"/>
  <path d="m563.75 100.16c-9e-3 1.098-1.1254 1.974-2.4934 1.9576-1.3725-0.0148-2.4758-0.91702-2.467-2.015s1.1474-1.9458 2.5199-1.932c1.3681 0.0173 2.4493 0.89182 2.4405 1.9893z" fill="#e76c6f"/>
  <path d="m563.69 100.14c-4e-3 1.0747-1.09 1.9324-2.4184 1.9176s-2.4008-0.89726-2.392-1.9725c9e-3 -1.0732 1.1121-1.9087 2.4405-1.8954 1.3284 0.01631 2.3831 0.876 2.3699 1.9502z" fill="#e76a6f"/>
  <path d="m563.63 100.12c-9e-3 1.0515-1.0592 1.8909-2.3478 1.8766s-2.3258-0.87699-2.3169-1.929 1.0724-1.8721 2.3611-1.8593c1.2887 0.01533 2.3125 0.86067 2.3037 1.9117z" fill="#e7696d"/>
  <path d="m563.57 100.1c-9e-3 1.0288-1.0239 1.8499-2.2728 1.836s-2.2507-0.85672-2.2419-1.8855 1.0371-1.835 2.286-1.8232c1.2445 0.01483 2.2375 0.84535 2.2287 1.8726z" fill="#e6676d"/>
  <path d="m563.51 100.09c-9e-3 1.005-0.99297 1.8084-2.1978 1.795-1.2092-0.0124-2.1801-0.83645-2.1757-1.842 9e-3 -1.004 1.0018-1.7985 2.211-1.7876 1.2048 0.01434 2.1713 0.82953 2.1625 1.8346z" fill="#e7666d"/>
  <path d="m563.45 100.07c-9e-3 0.9818-0.95766 1.7673-2.1227 1.7545s-2.1051-0.81667-2.1007-1.7985c9e-3 -0.98129 0.96649-1.7619 2.1316-1.7515s2.1007 0.8142 2.0918 1.7955z" fill="#e7666d"/>
  <path d="m563.39 100.05c-9e-3 0.95906-0.92678 1.7263-2.0521 1.7144s-2.0301-0.79689-2.0257-1.7559c9e-3 -0.95806 0.92678-1.7248 2.0521-1.7149s2.0345 0.79838 2.0257 1.7564z" fill="#e6656c"/>
  <path d="m547.98 96.527s0.15888-7.834-3.8439-1.6709c0 0 1.7035 2.3764 3.8439 1.6709z" fill="#f4b891"/>
  <path d="m547.89 96.472s0.15446-7.5018-3.6806-1.5997c0 0 1.6285 2.2755 3.6806 1.5997z" fill="#f4b38b"/>
  <path d="m547.8 96.417s0.14564-7.1711-3.5173-1.5295c0 0 1.5579 2.1747 3.5173 1.5295z" fill="#f2af85"/>
  <path d="m547.71 96.362s0.14122-6.8394-3.354-1.4584c0 0 1.4872 2.0738 3.354 1.4584z" fill="#f2a97f"/>
  <path d="m547.61 96.307s0.13239-6.5077-3.1908-1.3882c0 0 1.4122 1.974 3.1908 1.3882z" fill="#f2a579"/>
  <path d="m547.53 96.252s0.12356-6.176-3.0319-1.317c0 0 1.3416 1.8726 3.0319 1.317z" fill="#f09e74"/>
  <path d="m547.43 96.196s0.11474-5.8438-2.8686-1.2463c0 0 1.2666 1.7728 2.8686 1.2463z" fill="#ef9a6e"/>
  <path d="m547.34 96.141s0.11033-5.5126-2.7053-1.1756c0 0 1.196 1.6719 2.7053 1.1756z" fill="#ef9469"/>
  <path d="m547.25 96.087s0.1015-5.1813-2.542-1.1054c0 0 1.1254 1.572 2.542 1.1054z" fill="#ee8f62"/>
  <path d="m547.15 96.032s0.0971-4.8496-2.3787-1.0347c0 0 1.0548 1.4712 2.3787 1.0347z" fill="#ec875a"/>
  <path d="m548.10728,95.33146c-.37071.02669-.48546-1.39655-1.14302-2.14649-.78556-.67974-1.41223-.02126-1.7035.02966-.1015.05833-.33099-.54082.17653-1.04902 .42808-.52055 1.50931-.71632 2.28162.0262 1.30631,1.67932.57372,3.22468.38837,3.13965z" fill="#26231f"/>
  <path d="m529.29 88.481c-0.0838 0.0262 0.45456 2.5499 2.2375 6.215 1.7344 3.6187 4.8413 8.8855 10.252 11.311 11.183 4.5426 20.764-1.4603 20.429-1.4278 0.106-0.56799-9.0824 4.2644-19.67-0.0963-10.503-5.0385-12.803-16.641-13.248-16.002z" fill="#26231f"/>
  <path d="m527.14956,88.68513c.18536-.30897.70611-.41002 1.55786-.81989 .84292-.3804 1.52696-.70095 1.76528-.45668 .24714.23897-.28685,1.19698-1.32837,1.66513-1.04593.56505-2.21543-.02966-1.99477-.38856z" fill="#26231f"/>
  <path d="m561.73143,103.32212c.34864-.0549.75024.38906 1.30189,1.03172 .56931.62734.94884,1.10538.89147,1.48554-.0441.36236-1.02827.22641-1.72115-.57346-.70611-.79541-.78996-1.9082-.47221-1.9438z" fill="#26231f"/>
  <path d="m533.89 99.539c0.053-0.17006 1.4696 0.71236 2.542 3.0808 0.5693 1.1375 1.0945 2.5672 1.7476 4.031 0.73701 1.4791 1.4431 2.9557 3.0672 1.9616 6.8404-2.2805 12.71-1.318 12.613-0.87946-0.0221 0.27288-5.6753-0.0722-12.273 2.1262-0.60903 0.35247-2.1934 0.62586-2.9083-0.29414-0.75466-0.7445-1.121-1.6057-1.4608-2.3862-0.63991-1.5839-1.068-3.0057-1.5225-4.1506-0.83411-2.3452-1.9021-3.3245-1.805-3.4892z" fill="#26231f"/>
  <path d="m546.32 107.4s-5.4856-1.4752-8.9235-4.3429c-0.76348-0.63821 1.3063 6.9887 3.2481 5.5081 2.1934-1.6684 3.7159-1.0812 5.6754-1.1652z" fill="#da013c"/>
  <path d="m533.41567,85.51718c-.053.2588.1677.53637.49428.61794 .32216.08305.62667-.06031.67963-.32054s-.1677-.53781-.48987-.61938c-.32657-.08305-.63108.06179-.68404.32197z" fill="#9e2c14"/>
  <path d="m531.38539,83.32302c-.053.25924.1677.53633.49428.61844 .32216.08256.63108-.0618.68405-.32108s-.17212-.53731-.49429-.61888c-.32657-.08305-.63108.0613-.68404.32153z" fill="#9e2c14"/>
  <path d="m531.23596,86.2512c-.0485.26023.1677.53638.49427.61893s.63109-.06135.68405-.32153-.1677-.53731-.49428-.61943-.63109.06179-.68404.32202z" fill="#9e2c14"/>
  <path d="m535.87871,88.61165c-.053.26052.1677.53786.49428.62042s.63108-.06278.68405-.32133-.16771-.53638-.49429-.61948-.63108.06179-.68404.32039z" fill="#9e2c14"/>
  <path d="m562.03061,98.10103c-.053.25904.1677.53638.49428.61893s.63108-.0613.68405-.32183-.16771-.53638-.49429-.61893-.63108.06179-.68404.32183z" fill="#9e2c14"/>
  <path d="m559.65274,100.26679c-.053.26003.1677.53736.49428.61992s.63108-.0623.68405-.32183-.16771-.53736-.49429-.61893-.63108.0613-.68404.32084z" fill="#9e2c14"/>
  <path d="m565.46063,100.3541c-.0486.25904.17211.53588.49427.61893 .32658.0821.63109-.0618.68405-.32182s-.1677-.53638-.49428-.61795-.63109.0603-.68404.32084z" fill="#9e2c14"/>
  <path d="m557.71934,97.60184c-.0485.26003.1677.53736.49427.61943 .32217.08256.63109-.06179.68405-.32084s-.17211-.53736-.49428-.61943c-.32657-.08157-.63109.06179-.68404.32084z" fill="#9e2c14"/>
  <path d="m534.37 170.55s10.066 12.004 8.769 15.278l-1.3018 3.2735s19.811 45.107 19.162 52.745c0 0-24.356-3.2731-27.605 1.4554 0 0-1.9463-8.003-2.2729-5.0928 0 0-8.769-6.1834-16.885-0.36278 0 0 0.64873-35.285-3.2481-42.197s-4.2234-19.643-0.64875-23.281 19.806-5.0924 23.381-3.2731l0.64879 1.4549z" fill="#252413"/>
  <path d="m549.63 236.39s-2.2728 29.465-5.8431 33.83-7.4716-0.72764-5.5209-3.2731 3.5703-21.826 2.2728-28.738 9.0912-5.4557 9.0912-1.8182z" fill="#252413"/>
  <path d="m523.65 230.93s0.64875 20.371-0.32658 22.191-9.4178 5.0928-7.145 6.1834 9.7444 0.72717 11.368-1.4554 4.8678-20.006 3.5704-24.008-5.8431-7.2754-7.4672-2.9103z" fill="#252413"/>
  <path d="m542.16 263.31s-29.551 0.36336-29.877 4.3652c-0.32216 4.0008 12.666 6.5482 20.133 6.1833s13.315-1.4548 13.641-4.3651c0.32216-2.9103 1.9462-7.6383-3.8969-6.1834z" fill="#252413"/>
  <path d="m522.67 250.94c0.93112-0.31441 7.7937-0.36434 7.4671 4.3652-0.32227 4.728-27.278 14.914-30.2 12.003s9.74-12.003 22.732-16.369z" fill="#252413"/>
  <path d="m569.71 83.863c-1.2048 1.177 6.3682 10.983 1.3549 11.579-1.4299 0.17011-3.7866-5.8743-5.2341-6.1295-1.4432-0.25551-2.9613 7.8321-3.535 5.0385-1.1651-5.6722-2.617-9.4345-2.617-7.2519s-5.8254 4.7054-4.8501 1.068c0.97094-3.6377 0.23387-4.6288-0.0926-3.5368-0.32215 1.0905-1.8226 6.2849-5.0134 4.6822-2.2066-1.1069 0.52955-5.9596 0.52955-5.9596s-9.3736 6.6062-7.5951 2.6181 6.152-6.0235 5.2385-6.1934c-2.264-0.42297-13.853 2.5693-11.902 0.75019s4.2676-1.1404 5.4415-2.8788c1.6726-2.4694-2.8156-0.33309-5.0884-1.7882-2.2772-1.455 0.1015-4.5665 5.6224-2.3838s-2.7274-11.865 0.51634-8.5909c3.2481 3.2737 3.407 2.3685 5.031 3.8235s0.48984-7.8252 2.7626-3.8235c2.2773 4.0012 1.6462 7.0045 2.2949 8.4596s0.28693-8.7478 3.5526-7.732c-1.0459 6.2794 0.32664 6.9113 0.32664 8.7304s1.9461-6.1842 6.1697-6.1842-2.5994 4.7292-1.9506 6.9119 3.5702-4.7292 7.7937-3.2742-8.4424 6.9118-3.8969 6.5478 11.598 1.7873 11.068 3.5605c-0.45451 1.5323-4.7265 0.78161-5.9269 1.9576z" fill="#252413"/>
  <path d="m555.34 81.479c0.17218 0.29062 1.1254 3.7762 0.77678 4.9383-0.34425 1.162 1.6461-4.6e-4 2.4229-2.2271s4.753 0.19359 4.3204 4.0673c0 0 0.95334-1.6457 1.3858-2.324s2.851 0.96887 3.3717 2.8082 0-4.4545 0-4.4545c-2.3346-0.48421 0.51631-2.5171 2.5906-2.6142s-2.4184-3.6796-6.5669-1.9368-1.3857-2.5177 0.51643-3.8733-3.8042 0.29014-5.1856 2.5176c-1.3858 2.227 0-5.3259 0-5.3259 1.73-2.5176-3.0627 2.9733-3.1112 3.5831-0.26035 3.0984-1.2975-3.4861-0.69288-5.3259s-2.9392 1.8394-2.3346 3.7762-2.5906-2.9048-2.6788-5.2288-3.0275 1.065-1.5579 3.8732-0.42808 1.5492-1.3813 0.38767 0.0883 2.0329 0.0883 2.0329c1.8138 0.77484-4.5853 2.3241-5.4459 2.9048s9.506-1.8393 9.9385-0.96789-4.4088 4.1638-4.5809 5.3258 6.3947-3.9702 6.3947-3.9702c0.95333 0.09703-2.9347 5.1323-2.4184 6.2943s3.1113-4.7447 4.2367-4.6481c1.121 0.09703-0.26035 0.09703-0.0883 0.38718z" fill="#39372c"/>
  <path d="m504.53 43.721s-23.112 4.006-23.937 7.088-3.3011 13.252 3.0275 12.635 18.708-2.465 18.708-2.465l44.573 8.629s-1.655-11.711 4.3998-14.176c0 0-40.994-14.176-46.771-11.711z" fill="#26231f"/>
  <path d="m498.11 68.267s-18.434-3.082-20.636 0.92449-9.6252 16.95-5.2252 17.566 22.56 0.30799 22.56 0.30799l28.337 4.9315s-2.2022-16.95 3.5747-19.415l-28.611-4.315z" fill="#26231f"/>
  <path d="m466.84 95.187s4.1308 7.7041 0.82527 9.5534c0 0 19.537 0.92445 21.188-4.0063s1.6505-9.8619 0-9.5539-19.259 2.1574-22.013 4.0068z" fill="#26231f"/>
  <path d="m488.85 107.51s-15.406-4.6227-17.882-2.4648-7.5245 11.482-6.6992 17.338 8.6234 3.0027 15.226 2.6947 32.19 4.9302 32.19 4.9302-0.55165-15.101 4.4-16.95c4.956-1.8494-27.234-5.5476-27.234-5.5476z" fill="#26231f"/>
  <path d="m477.2 160.98s-13.91-1.2305-14.643 2.4609-2.1978 9.023 1.4652 10.253 13.544 2.0511 13.544 2.0511 30.438 2.3185 31.572-0.183c1.1386-2.5014-1.4696-3.4288-1.4873-18.56-4.7618 0-24.59 2.3378-30.451 3.9781z" fill="#26231f"/>
  <path d="m464.39 133.09s3.6586 15.995 0 22.147c0 0 13.178 4.1012 16.841-0.41088s6.5888-17.225 2.1977-20.095c-4.3956-2.8707-16.113-2.4609-19.039-1.6408z" fill="#26231f"/>
  <path d="m462.55 160.16c0.92236-0.66787 15.742-2.4604 16.108 0.82064s-1.0989 3.6913-2.1977 3.2815-11.713-2.8707-11.713-0.40982-1.8315 8.2024 0.72818 8.6121 13.182-1.2304 13.182 1.6403-0.73258 4.9218-0.73258 4.9218-14.643-0.82017-16.108-3.2811-5.4944-11.073 0.73259-15.585z" fill="#252413"/>
  <path d="m463.29 134.73c1.4299 0.35594 13.91-2.8707 16.108 1.23s1.4653 19.687-2.9303 19.276c-4.3911-0.41078-14.277-2.8702-14.643 0.41031s0.73259 4.5106 0.73259 4.5106 13.178 1.6412 16.108 0.82063 27.516-0.87749 28.615-2.5183c1.0944-1.6403 1.3372-24.152 0.30892-27.011-1.0239-2.8584-13.544-2.8707-23.063-2.8707s-21.603-0.82063-22.702 0.82063-1.8315 4.5105 1.4652 5.3316z" fill="#26231f"/>
  <path d="m477.48 164.03s28.35 0.18736 29.52-1.6813 0.49871-3.1762-0.6664-3.9232c-2.339-1.4944-27.353 1.1212-28.518 2.2414s-1.0018 2.6161-0.3354 3.3631z" fill="#26231f"/>
  <path d="m477.65 173.37s30.186-2.2424 31.02-0.93384 1.0018 3.1757 0 3.7368-29.295 3.4664-30.742 2.8539-1.2798-5.8438-0.27803-5.6569z" fill="#26231f"/>
  <path d="m467.66 104.74c-0.84292 0.57937-6.3241 11.711-5.2252 18.491s0.90029 5.6193 0.90029 5.6193 17.807 3.0092 18.633 0.23629-1.3769-5.5476-1.3769-5.5476-13.756 2.4653-13.756 0 0.27804-13.252 2.2022-15.101c1.9286-1.8494 17.335 2.4653 17.882 0s0.27807-4.9307 0.27807-4.9307-14.581-2.1579-19.537 1.2324z" fill="#26231f"/>
  <path d="m486.1 103.51c1.1342 0 34.944 5.2387 34.118 7.704s-0.27807 2.7738-3.0275 2.7738-31.365-3.0818-31.916-4.9307-0.82527-5.5472 0.82526-5.5472z" fill="#26231f"/>
  <path d="m480.59 123.54c-1.4475-0.35-0.27362 4.3142 1.3769 5.5477s28.889 5.5472 30.266 3.0813c1.3725-2.4654 1.6506-4.9307 0.82523-4.9307s-18.262-0.26398-32.468-3.6983z" fill="#26231f"/>
  <path d="m466.56 91.798s22.56-5.5472 23.937-1.8489c1.3725 3.6978 1.6506 12.944-2.2021 13.56s-23.019 4.8788-23.845 3.0294 1.2842-3.0294 3.76-3.9543 17.882-0.92444 18.708-3.3898 0.55154-6.1641-1.6506-6.1641-18.434 4.3152-19.533 3.0823-1.9242-4.3147 0.82526-4.3147z" fill="#26231f"/>
  <path d="m490.5 89.949s30.261 1.5409 31.087 7.7045 0.55165 13.252-2.4758 12.944-31.087-5.8551-33.015-7.0881c-1.9242-1.2334 2.4758-2.4658 2.4758-5.2396s0.55165-9.8619 1.9286-8.3205z" fill="#26231f"/>
  <path d="m494.35 66.219s-16.911-1.4517-20.213 1.3223-7.2376 21.706-5.5871 22.939 24.701 1.625 25.8-0.53185 1.1033-4.6229-1.0989-4.3148-19.533 3.3898-19.533 0.30845 2.4758-13.56 4.4-14.793c1.9286-1.2325 17.609 1.2325 18.434-0.30848s1.3769-4.314 1.3769-4.314-1.1033-0.30798-3.579-0.30798z" fill="#26231f"/>
  <path d="m497.93 66.527s32.464 0.92449 33.015 4.314l0.54727 3.39-1.9242 0.61651s-31.638-3.39-33.015-4.0065 0-4.622 1.3769-4.314z" fill="#26231f"/>
  <path d="m494.35 85.943s30.65 3.066 30.323 5.8473-1.4343 4.3226-3.3585 4.3226c-1.9285 0-28.337-4.6227-28.337-4.6227s-0.27803-6.1637 1.3725-5.5472z" fill="#26231f"/>
  <path d="m505.08 41.872s2.7494 4.9305 0 5.2385-20.358 1.8495-22.287 4.007c-1.9242 2.1575-2.7494 10.17 0.55165 10.478s20.358-5.239 20.358-2.7731-2.2021 8.3017-2.2021 8.3017-23.108 1.2518-23.933-0.90511-1.9286-14.177-0.82527-17.259 23.108-8.3205 28.337-7.088z" fill="#26231f"/>
  <path d="m505.08 41.872s51.996 6.472 51.723 10.786c-0.27358 4.3155-2.2021 3.39-2.2021 3.39s-48.422-7.088-49.521-8.9375 0-5.2385 0-5.2385z" fill="#26231f"/>
  <path d="m503.71 58.822s45.394 7.3965 45.121 10.17l-0.27358 2.7741s-1.377 1.5409-3.5791 1.2324-43.192-5.855-44.843-6.4715 0.82528-8.321 3.5747-7.7045z" fill="#26231f"/>
  <path d="m505.04 48.355s-3.7203 5.4224-1.1165 9.8012c0 0-21.969 4.7963-22.71 2.9192-0.74583-1.8765 0.19418-9.2821 1.5843-9.9585s22.243-2.7619 22.243-2.7619z" fill="#fefbde"/>
  <path d="m482.84 133.27s4.3293 19.358-3.1201 25.615c0 0 24.762-1.6684 25.879-2.9202s2.4317-19.5 1.3152-20.127-23.514-3.8189-24.074-2.5677z" fill="#ab0a15"/>
  <path d="m462.22 130.52s-0.93119 3.1278 0.74583 3.1278c1.6726 0 13.774-2.7106 16.011 0.41723l0.1853-2.2938s-13.778-3.1278-16.942-1.2512z" fill="#e20415"/>
  <path d="m463.15 155.34 0.18535 1.4598s13.403 2.711 13.963 2.0857 0.93112-1.8771 0.37072-1.8771-13.774-3.545-14.519-1.6684z" fill="#e20415"/>
  <path d="m478.66 160.98s-0.8032 2.0698 0.31775 2.0698 26.62-0.83447 26.62-1.4603-0.93111-1.8766-0.93111-1.8766-25.389 0.44887-26.007 1.267z" fill="#d2650c"/>
  <path d="m479.54 175.57s-0.74583 2.2943 0.93119 2.0857 27.366-1.2517 27.552-2.5029-0.74144-1.668-0.74144-1.668-26.625 0.41724-27.741 2.0852z" fill="#d2650c"/>
  <path d="m477.2 160.98s0.10588 2.0694-0.45463 1.8608-12.101-0.83398-12.842 0c-0.74583 0.83446-1.4917 6.8819 0 9.5929l13.959 2.2943-0.1853 2.9197s-13.403-1.8771-14.334-2.503-3.535-3.1278-2.7936-9.5929c0.34864-3.0111 3.354-5.0044 3.354-5.0044l13.297 0.43256z" fill="#d2650c"/>
  <path d="m466.32 135.11s4.0954 13.347 0.55606 18.143c0 0 11.73 4.3795 12.847 2.7111s2.9789-18.143 0.37509-20.019c-2.6082-1.8771-13.778-0.83447-13.778-0.83447z" fill="#fefbde"/>
  <path d="m478.05 165.55s-0.74581 5.0053 0.93124 7.7164c0 0-13.778-1.0431-14.153-2.2943-0.37071-1.2512-0.74142-5.8388 0.37512-6.4642s12.847 1.0421 12.847 1.0421z" fill="#fefbde"/>
  <path d="m479.91 165.55s-1.3019 5.8393 0.56048 7.2991 26.81-1.0431 26.81-1.0431-1.677-6.8814-0.3751-8.3412c0 0-25.875 0.83398-26.996 2.0852z" fill="#d9b68b"/>
  <path d="m485.86 112.38s-3.1643 10.427-1.6726 11.261l26.62 2.2943s-2.4184-9.3844 1.677-10.844c0 0-25.879-3.9618-26.625-2.711z" fill="#d9b68b"/>
  <path d="m497.78 72.546s-2.9789 8.3417-1.8624 13.347l25.318 3.5448s-2.0477-12.512 1.677-14.806c0 0-24.017-3.3369-25.133-2.0855z" fill="#d9b68b"/>
  <path d="m506.72 49.19s-2.4184 5.0048-1.4872 8.3417l39.838 8.3413s-0.56052-7.9246 3.5349-10.01c0 0-41.515-7.7151-41.886-6.6728z" fill="#d9b68b"/>
  <path d="m485.49 105.5s0.37072 3.1283-0.56051 2.711-15.451-2.0847-16.753 0.41773c-1.3063 2.5019-4.8413 14.806-1.1165 16.891s13.588-0.20809 13.588-0.20809 0.56051 3.3368-0.37061 3.3368-15.08 0-15.826-0.62577-3.3496-11.47 2.4184-20.02c3.2658-4.8358 18.619-2.5029 18.619-2.5029z" fill="#009935"/>
  <path d="m487.54 106.12s-2.1625 1.5088-0.61784 2.3185c1.549 0.80975 30.778 5.606 31.334 4.9806s0.3751-1.8776 0.3751-1.8776-30.906-5.8393-31.091-5.4216z" fill="#009935"/>
  <path d="m482.33 126.14s-0.74583 3.1283 0 3.1283c0.74142 0 27.861 3.1085 28.297 2.2933s1.4873-2.2933 1.4873-2.2933-28.854-3.9628-29.785-3.1283z" fill="#009935"/>
  <path d="m484.19 110.71s-2.4229 7.2986-1.4916 12.303c0 0-15.896 3.1412-15.861 0.52805s0.41042-12.623 2.8288-13.457 13.963-0.20862 14.524 0.62536z" fill="#fefbde"/>
  <path d="m488.85 91.18s3.8483 7.5256-0.11916 11.893c-0.13239 0.1487-0.27803 0.29361-0.43249 0.43494 13.39 3.0294 30.332 5.3237 30.888 5.1152s1.4918-10.218 0.56051-11.261-30.147-7.1498-30.897-6.1814z" fill="#21276e"/>
  <path d="m465.57 93.191s-0.18535 1.668 0.56048 1.8766c0.74142 0.20862 19.731-2.2933 19.917-2.9192s1.121-2.2943-0.74133-1.6684-19.361 1.6684-19.736 2.711z" fill="#21276e"/>
  <path d="m465.76 104.24s-0.37071 1.4593 0.56048 1.4593 18.712-0.84535 19.78-2.1949 0.14122-1.9754 0.14122-1.9754-18.43 2.0852-19.921 2.711-0.56048 0-0.56048 0z" fill="#21276e"/>
  <path d="m469.11 96.945s2.4184 3.545 1.1165 5.2135c0 0 16.011-0.62635 17.128-2.2943s1.4873-5.8388 0-5.8388-17.128 2.2943-18.244 2.9197z" fill="#fefbde"/>
  <path d="m496.11 67.958s0 2.0851-0.93561 2.0851c-0.92686 0-16.395-2.5384-17.878-0.43498s-5.5783 16.493-4.272 17.952c1.3019 1.4601 20.848-0.83478 20.848-0.20867s-1.4873 1.8773-1.4873 1.8773-20.852 1.0422-21.598-0.20855c-0.74142-1.2511 2.6082-18.977 4.8413-20.645s18.43-1.2509 20.482-0.41714z" fill="#e20415"/>
  <path d="m495.36 87.351s-2.5729 2.4809-1.0106 2.5966c1.5667 0.11519 26.514 5.3286 27.446 4.9114s1.1695-2.4461 1.1695-2.4461-26.859-6.3138-27.605-5.0619z" fill="#e20415"/>
  <path d="m497.93 68.684s-0.70611 1.3595 0.78114 1.568 31.091 3.962 31.462 3.3364c0.37509-0.62521-0.55603-1.8765-0.55603-1.8765s-30.42-4.3874-31.687-3.0279z" fill="#e20415"/>
  <path d="m496.11 72.545s-4.2499 9.4836-1.7565 13.396c0 0-19.656 1.6192-19.656-0.04972s0.3354-13.637 3.4246-14.743 17.988 1.3966 17.988 1.3966z" fill="#fefbde"/>
  <path d="m504.3 42.724s1.3018 3.5454-0.56052 3.5454-21.784 2.0856-23.271 4.1707-3.3496 11.887 0.74583 13.138 21.117-2.5992 21.117-2.5992l-1.0106 3.225s-20.852 1.877-21.969 1.2513-1.8624-13.972-0.93119-15.64 24.387-7.7161 25.879-7.0909z" fill="#fec611"/>
  <path d="m506.53 43.141s-0.93119 2.5022 0.18535 2.9198 47.844 9.176 48.033 8.3418-0.18979-2.0856-0.18979-2.0856-48.029-9.5936-48.029-9.176z" fill="#fec611"/>
  <path d="m504.48 61.284s-2.2331 3.1288-0.93119 3.5455 42.446 7.2985 43.192 6.8819c0.74144-0.41714 0.55603-1.4599 0.55603-1.4599s-41.7-9.5926-42.817-8.9674z" fill="#fec611"/>
  <path d="m483.63021,113.21121c-.0397.13793-.48545.0989-1.18274.046-.69728-.0559-1.65053-.10876-2.71411-.0865-2.12276.0391-3.86156.32232-3.92334.0405-.0662-.25806 1.65495-1.00898 3.91009-1.05397 1.12096-.0242 2.1404.15029 2.84652.39549 .71053.24273 1.1033.53044 1.06358.65848z" fill="#26231f"/>
  <path d="m483.07032,114.87885c.004.28425-1.33279.49633-2.97008.53341-1.62847.0391-2.95685-.044-2.98333-.32529-.0265-.27486 1.30189-.64859 2.96567-.68814s2.98774.20466 2.98774.48002z" fill="#26231f"/>
  <path d="m476.927,140.94642c-.0221.14188-.5693.14683-1.43429.15523l-3.40258.0395c-1.34161.005-2.57731-.0756-3.45995-.26053s-1.4034-.42613-1.38133-.55961c.0221-.14089.5693-.14583 1.43871-.15423l3.40257-.0395c1.3372-.005 2.5729.0756 3.45554.26003 .88705.17797 1.40781.42613 1.38133.55911z" fill="#26231f"/>
  <path d="m476.18604,144.90856c-.053.2897-1.82265.0336-3.9454-.32726-2.11834-.37324-3.8439-.43602-3.87479-.71484-.009-.13446.42808-.30897 1.16067-.39696s1.74763-.0702 2.8421.10875c2.19336.37374 3.86597,1.07325 3.81742,1.33031z" fill="#26231f"/>
  <path d="m477.85767,139.48732c.004.13594-.61345.2788-1.61524.28573s-2.37871-.1409-3.86597-.42614-2.80679-.59322-3.76446-.80728c-.95766-.21998-1.55786-.36928-1.54903-.51215 .004-.13644.62667-.23976 1.62406-.19972 .99738.0346 2.36547.2363 3.83948.51957 1.47843.28376 2.80239.54379 3.76446.71137s1.5667.28476 1.5667.42862z" fill="#26231f"/>
  <path d="m488.2863,168.8915c-.009.2803-1.99036.49435-4.43969.76674s-4.46616.35396-4.49705.0677c-.0309-.26893 1.93299-.8058 4.41321-1.0772 2.48904-.27684 4.52794-.0371 4.52353.24273z" fill="#26231f"/>
  <path d="m491.82181,121.96911c-.053.29761-1.90209-.0158-4.12193-.24915-1.10771-.10876-2.10951-.12112-2.83769-.0919-.72818.0242-1.19598.0643-1.23128-.0756-.0353-.12755.38394-.41872 1.14301-.63426 .75025-.2195 1.83589-.32331 3.0054-.20813 1.16508.11173 2.19335.38214 2.91713.63327s1.15183.4904 1.12536.62585z" fill="#26231f"/>
  <path d="m531.1 60.867c-0.0308 0.13759-1.5049-0.16032-3.8659-0.72076s-5.6048-1.3774-9.2104-2.1189-6.8979-1.2132-9.2898-1.4604-3.8836-0.34709-3.8836-0.49628c0-0.13036 1.4961-0.29256 3.9233-0.21915s5.7725 0.42772 9.4133 1.1784 6.8758 1.6848 9.2016 2.4206 3.7423 1.2832 3.7115 1.4165z" fill="#26231f"/>
  <path d="m515.65 55.237c-0.0618 0.27713-2.2684-0.1009-4.9737-0.56194-2.7009-0.47502-4.9031-0.82359-4.8942-1.1065s2.2816-0.37798 5.031 0.10426c2.7538 0.46929 4.8942 1.2987 4.8369 1.5642z" fill="#26231f"/>
  <path d="m478.41901,76.92586c-.0177-.13807.87382-.42148 2.339-.7879 1.46519-.35871 3.49967-.80768 5.79453-1.06306s4.41317-.20323 5.92253.10283c1.50936.29449 2.36543.79754 2.32573.91391-.0441.14672-.93561-.09996-2.40515-.20278-1.46516-.11439-3.49969-.06179-5.75484.19503-2.25073.25009-4.28963.58368-5.7813.76135s-2.42284.21915-2.4405.08062z" fill="#26231f"/>
  <path d="m487.54106,80.26304c0-.2805.66639-.50741 1.48725-.50741 .82526,0 1.49166.22691 1.49166.50741s-.6664.50642-1.49166.50642c-.82086,0-1.48725-.2274-1.48725-.50642z" fill="#26231f"/>
  <path d="m494.24489,82.34727c-.0662.12359-.83847-.25538-2.17576-.50646-1.32831-.2631-3.20834-.42095-5.28254-.34081-2.07863.07529-3.94541.3674-5.26936.69472-1.32838.31811-2.10511.69273-2.16689.56964-.0662-.11489.64433-.74395 1.99035-1.25907 1.34162-.52283 3.27019-.9409 5.41501-1.01862s4.09987.19601 5.46351.65705c1.37251.44992 2.09186,1.09055 2.02568,1.20356z" fill="#26231f"/>
  <path d="m477.30247,97.57025c-.053.2976-1.85354-.01038-3.97188.36928-2.11833.36632-3.70709,1.34514-3.84832,1.09055-.0618-.1137.26038-.50918.90912-.95955 .64433-.44986 1.6373-.92641 2.79798-1.13256s2.23307-.10826 2.97009.07465 1.16508.42564 1.14301.55763z" fill="#26231f"/>
  <path d="m477.67245,98.61259c0,.29612-1.74322.4464-3.81743.86661-2.07861.40536-3.69826,1.06088-3.813.80184-.053-.12161.29568-.45629.94884-.82558s1.6064-.74993 2.70088-.97289c2.19777-.44294 3.98953-.1315 3.98071.13001z" fill="#26231f"/>
  <path d="m502.62089,80.47055c0,.29256-1.76528.47023-3.90127.58556-2.13599.10816-3.85714.31382-3.91892.04059-.0662-.26987 1.66377-.94047 3.87037-1.05293 2.19337-.1178 3.94982.16027 3.94982.42678z" fill="#26231f"/>
  <path d="m496.66 79.427c-0.0794 0.28243-2.6479-0.49049-5.8563-0.90472-1.6064-0.21-3.0628-0.26601-4.1219-0.25588s-1.7256 0.05359-1.752-0.09027c-0.0221-0.12937 0.61343-0.43014 1.6991-0.62373 1.0856-0.19745 2.617-0.25489 4.2764-0.03767 3.3364 0.43355 5.8387 1.667 5.7548 1.9123z" fill="#26231f"/>
  <path d="m485.14 137.33s19.868 0 20.058 1.712-0.76354 1.712-0.76354 1.712-18.721 1.4984-19.294 0.64216-1.5314-3.852 0-4.0661z" fill="#e20415"/>
  <path d="m547.32 129.35s-39.789 26.764-52.455 47.499l3.5703 0.72775s29.18-26.876 51.59-34.151c0 0 5.7416-17.35-2.7053-14.076z" fill="#26231f"/>
  <path d="m563.59 111.98s4.2234-2.5464 7.4715 0 3.9013 10.868 3.9013 10.868-18.28 23.092-24.727 23.353c-1.7476 0.0702-3.8571-20.397-6.1299-20.397s16.563-13.459 19.484-13.823z" fill="#252413"/>
  <path d="m495.5 174.67s-9.8856-4.5318-9.3119-1.5365c0.34424 1.7802 2.6479 3.0586 2.745 4.6726 0.053 0.96005-2.4361 0.48497-4.3426 0.96005-1.4564 0.36286-0.20301 1.6754 1.4828 2.368 1.5932 0.65353 3.2525 0.85276 3.0848 1.6002-0.16329 0.74754 1.0106 3.1787 2.3434 2.4323 1.3372-0.748 1.1474-0.89429 1.8138-0.33423s-0.45014 1.8543 1.3858 1.2942 1.8226-1.2942 2.3257-1.2942 0.44128 1.969 2.1095 1.0352c0.63556-0.35645 4.1705-4.0354 2.1846-8.1024-0.80325-1.6388-0.56937-0.79196-1.5712-2.2864s-1.0812-1.93-4.2499-0.80876z" fill="#26231f"/>
  <path d="m552.97 141.78s20.919-19.267 20.685-21.61-3.2526-8.0708-5.1149-7.8108-22.313 12.757-22.313 12.757 6.7434 11.977 5.1149 17.184l1.6285-0.52104z" fill="#bd0179"/>
  <path d="m516.24 173.02c0.67079-0.21407 12.834-3.8861 15.852-1.5424s8.9323 12.054 8.0011 13.617-1.6019 3.5836-1.6019 3.5836 19.956 45.006 20.424 49.171l-24.396 1.1879-5.031-14.986 0.69725 9.894-14.409 0.52046s-0.93118-30.723-1.6285-35.409-3.2525-8.3314-3.9498-11.977c-0.69729-3.6449 0-11.716 0.93118-12.237s3.482-1.3021 5.1105-1.8227z" fill="#532d84"/>
  <path d="m546.69 131.88s3.9498 6.2486 1.858 7.8108-37.159 17.265-50.174 37.052l-2.1228-0.3416s6.2756-8.0717 7.904-9.6335c1.624-1.5616 31.378-29.681 42.534-34.888z" fill="#f4b891"/>
  <path d="m496.61 176.17s-8.1512-4.1066-8.5925-3.2568c-0.44573 0.8498 2.7803 2.9735 2.4008 4.248s-6.0064 1.4865-5.1193 2.1238c0.88264 0.63722 5.1193 0.84929 5.0531 1.9824-0.0618 1.1326-0.18977 2.3359 0.6355 2.053 0.82086-0.28327 2.7803-0.84929 2.9701 0.35396s0.0618 1.1325 1.2004 0.49583 2.4008-0.7089 2.4626-0.3545c0.0662 0.3545 0.88704 0.14145 1.3901-0.42509 0.50745-0.56604 1.399-1.925 0.66191-4.376-0.37061-1.2369-0.79427-1.8415-0.80751-2.2661s-1.3063-1.2156-2.2552-0.5784z" fill="#f4b891"/>
  <path d="m547.78 241.41s-3.4468 20.196-3.4468 22.573-0.79438 3.5644-0.79438 3.5644-18.557 2.6724-16.439 0.29706 13.787-2.0793 13.787-2.0793 0.79438-23.166 2.1227-23.761c1.3239-0.59422 5.0355-2.0793 4.7707-0.59422z" fill="#f4b891"/>
  <path d="m530.54 237.25-3.1819 14.256s-12.458 7.7223-13.787 6.5339c-1.324-1.1874 12.198-7.4248 12.198-7.4248s-1.3284-13.068 0-13.959c1.3239-0.89132 4.7707 0.59372 4.7707 0.59372z" fill="#f4b891"/>
  <path d="m516.81 187.81c-0.35747-0.63772 4.6868 3.8169 6.1741 3.8169s6.814 30.054 6.814 30.054l-7.4495-27.43s-2.9833-1.9087-5.5386-6.4404z" fill="#252413"/>
  <path d="m515.54 198.3c0 2.1465 1.4872 34.347 1.4872 34.347s3.4114-1.6695 8.9456-0.23825c0 0-5.1105-3.1011-6.814-2.624s-3.6188-31.485-3.6188-31.485z" fill="#7d5399"/>
  <path d="m526.39 195.44 9.3692 40.072s6.8139-4.0542 11.073-4.5318c0 0-5.5341-1.193-8.0893 0.23824s-12.353-35.778-12.353-35.778z" fill="#7d5399"/>
  <path d="m568.98 114.31s-17.887 8.1094-18.95 10.495c0 0 4.2587 7.1563 3.8307 11.211 0 0 3.407-7.8717 1.9197-10.256 1.9153-2.3852 15.967-11.926 13.2-11.449z" fill="#d60078"/>
  <path d="m529.9 172.88c-0.63993 0-16.823 1.9087-18.31 4.771-1.399 2.6858-1.6726 8.7328-0.64433 11.636 0.0662 0.19036 0.1368 0.36681 0.21624 0.5284 1.2798 2.6236-1.0636-10.018 3.407-11.688s15.332-5.2476 15.332-5.2476z" fill="#7d5399"/>
  <path d="m524.43 117.41c0.8783 0 16.872 7.9037 13.465 10.051s-16.611-4.771-15.971-2.8623 13.332 8.3486 11.501 8.3486c-2.7715 0-10.649-3.8159-10.649-3.101 0 0.71532 6.0196 6.4399 5.1104 7.1558s-5.3223-4.7701-12.988-6.2018c-2.5552-0.4765 6.814 0.95413 5.9622 0.47706s-4.0469-3.8164-4.0469-3.8164 4.8987-0.47704 6.6022 0.95411-5.1105-5.9629-5.1105-5.9629 13.575 3.8846 16.607 3.3394c1.2842-0.23087-12.397-8.3813-10.481-8.3813z" fill="#dbd800"/>
  <path d="m522.92 119.14s0 3.0052 1.9506 2.1855-1.9506-2.1855-1.9506-2.1855z" fill="#6fb419"/>
  <path d="m529.75 128.42c2.8068-1.3481 1.7079-4.3716-0.48985-3.8253-2.1934 0.54676-1.218 4.6445 0.48985 3.8253z" fill="#6fb419"/>
  <path d="m522.19 132.52s-4.6339 1.0925-1.9506 1.9122 1.9506-1.9122 1.9506-1.9122z" fill="#6fb419"/>
  <path d="m546.22 125.11 2.595-1.1004s5.9269 12.255 5.1634 17.361l-2.6435 0.92398s-2.542-14.042-5.1149-17.184z" fill="#6fb419"/>
  <path d="m571.61 118.57s0.30454 2.5529-0.30454 3.2336c-0.6046 0.68073-16.104 15.999-16.104 15.999s8.6587-10.723 10.331-12.935 3.4953-7.3184 3.4953-7.3184 2.1271-0.68073 2.5817 1.0213z" fill="#930c7a"/>
  <path d="m510.07 170.51 0.36188 0.95163s16.527-4.7201 23.266-3.2054l-0.0265-1.6289s-12.547-0.36978-23.602 3.8827z" fill="#6fb419"/>
  <path d="m534.52 239.04s18.129-2.713 24.564-0.12507l-0.16332-2.588s-21.894-0.12062-24.401 2.713z" fill="#d6daed"/>
  <path d="m515.78 234.46s11.62-1.4687 14.921 0.01 0.41929-0.63178 0.41929-0.63178l-0.7503-0.84683s-11.849-0.20516-14.59 1.4687z" fill="#d6daed"/>
  <path d="m511.13 174.84s14.608-4.7972 20.963-3.3651l1.2445 1.4321s-15.018-1.4786-22.94 4.2524l0.73259-2.3195z" fill="#d6daed"/>
  <path d="m526.18 177.66s-3.4556 1.4895-6.9155 4.1724-6.1211 8.6438-6.1211 8.6438-3.46-11.922 13.037-12.816z" fill="#7d5399"/>
  <path d="m530.92 174.46s8.6366 7.5567 7.8246 9.9751-1.8889 4.2321-1.8889 4.2321 18.889 42.318 19.97 47.457c0 0-15.649-1.8132-20.777 0.90717 0 0 9.7135-5.1383 14.572-4.8363 4.8545 0.30212-15.654-40.807-17-42.319s1.0768-3.9296 1.346-5.4409-4.0469-9.9751-4.0469-9.9751z" fill="#372569"/>
  <path d="m544.67 270.63s-23.849 2.889-29.652-1.925c0 0 6.0152-4.0923 16.545-3.6108 0 0-12.247 2.4075-9.6694 3.6108s19.555 2.1653 22.777 1.925z" fill="#372569"/>
  <path d="m528.55 255.46s-25.782 13.237-27.287 10.349c0 0 7.3083-8.6646 11.819-9.8678 0 0-8.1644 6.739-5.5871 6.739s21.055-7.22 21.055-7.22z" fill="#372569"/>
  <path d="m559.92 79.349s2.4228-5.3254 7.348-6.2938c0 0-6.0505 3.7767-5.7901 5.9066s-1.1254 1.065-1.5579 0.38718z" fill="#777457"/>
  <path d="m560.44 81.383s6.7434-3.0979 12.966-0.19309c0 0-8.2968-1.2591-12.533 0.96795 0 0-1.4696-0.29064-0.43249-0.77485z" fill="#777457"/>
  <path d="m555.43 66.857c0.18536-0.32731-3.2834 2.4206-1.4696 10.651l0.77672 0.38767s-2.1625-6.0037 0.69287-11.039z" fill="#777457"/>
  <path d="m562.77 68.988c0.34422-0.30754-5.0134 2.8088-5.9667 8.0376l0.86499 1.5487s0.43249-5.4229 5.1017-9.5863z" fill="#777457"/>
  <path d="m553.26 80.317s-3.5438 2.6147-3.3717 7.8435c0 0 1.8182-6.585 3.6321-7.2623l-0.26038-0.58126z" fill="#777457"/>
  <path d="m550.67 79.253s-8.2394 6.1886-6.1388 5.6165c4.5809-4.552 6.3947-4.1644 6.3947-4.1644 1.3857-0.38767 1.2092-1.3551-0.25597-1.4522z" fill="#777457"/>
  <path d="m565.88 84.287s4.4088 2.227 5.3576 8.6184l-3.5438-6.1974c-1.9021-1.7428-1.8138-2.421-1.8138-2.421z" fill="#777457"/>
  <path d="m545.48 75.283s-4.4088-2.0334-7.4318-1.065c0 0 6.3109 0.38767 7.4318 1.9364v-0.8714z" fill="#777457"/>
  <path d="m549.63 68.116s-0.43249 6.585 2.4184 9.1992h0.86498s-2.3346-2.5176-3.2834-9.1992z" fill="#777457"/>
  <path d="m556.89 82.642s0.26038 3.4851-0.60461 5.3254c0 0 1.6417-3.0009 0.94884-5.3254s-0.34423 0-0.34423 0z" fill="#777457"/>
 </g>
</svg>
